<?xml version="1.0" standalone="no"?>
<!DOCTYPE svg PUBLIC "-//W3C//DTD SVG 1.1//EN" "http://www.w3.org/Graphics/SVG/1.1/DTD/svg11.dtd" >
<!--
2013-9-30: Created.
-->
<svg>
<metadata>
Created by iconfont
</metadata>
<defs>

<font id="iconfont" horiz-adv-x="1024" >
  <font-face
    font-family="iconfont"
    font-weight="500"
    font-stretch="normal"
    units-per-em="1024"
    ascent="896"
    descent="-128"
  />
    <missing-glyph />
    
    <glyph glyph-name="iconfontwendang" unicode="&#58922;" d="M857.021 741.244h-170.221v-62.187c0-1.129-0.081-2.227-0.215-3.326h116.891c14.897 0 26.945-12.069 26.945-26.954v-567.809c0-14.897-12.059-26.964-26.945-26.964h-584.688c-14.886 0-26.954 12.080-26.954 26.964v567.819c0 14.886 12.080 26.954 26.954 26.954h116.892c-0.132 1.098-0.223 2.197-0.223 3.325v62.176h-170.2c-14.886 0-26.954-12.080-26.954-26.954v-698.843c0-14.886 12.070-26.954 26.954-26.954h691.765c14.875 0 26.945 12.080 26.945 26.954v698.842c-0.001 14.875-12.070 26.955-26.946 26.955zM657.414 675.961c0-16.247-15.447-29.423-34.576-29.423h-224.261c-19.073 0-34.548 13.163-34.548 29.423v73.594c0 16.232 15.475 29.423 34.548 29.423h224.247c19.13 0 34.576-13.192 34.576-29.423v-73.594h0.013zM235.626 539.798c0-24.394 19.776-44.168 44.168-44.168 24.394 0 44.168 19.776 44.168 44.168 0 24.394-19.776 44.168-44.168 44.168-24.394 0-44.168-19.776-44.168-44.168zM235.626 360.786c0-24.394 19.776-44.168 44.168-44.168 24.394 0 44.168 19.776 44.168 44.168 0 24.394-19.776 44.168-44.168 44.168-24.394 0-44.168-19.776-44.168-44.168zM235.626 183.51c0-24.394 19.776-44.168 44.168-44.168 24.394 0 44.168 19.776 44.168 44.168 0 24.394-19.776 44.168-44.168 44.168-24.394 0-44.168-19.776-44.168-44.168zM365.143 571.095h359.38v-49.252h-359.38v49.252zM365.143 385.432h359.38v-49.263h-359.38v49.263zM365.143 208.137h359.38v-49.252h-359.38v49.252z"  horiz-adv-x="1024" />

    
    <glyph glyph-name="shijian" unicode="&#59031;" d="M513.871 874.81c-271.033 0-491.52-220.487-491.52-491.52s220.487-491.52 491.52-491.52 491.52 220.487 491.52 491.52-220.487 491.52-491.52 491.52zM513.871-67.27c-248.436 0-450.56 202.124-450.56 450.56s202.124 450.56 450.56 450.56 450.56-202.124 450.56-450.56-202.124-450.56-450.56-450.56zM769.516 325.263l-314.669-0.041v314.491c0 11.264-9.216 20.48-20.48 20.48s-20.48-9.216-20.48-20.48c0 0-0.041-334.739-0.041-334.971 0-11.264 9.216-20.48 20.48-20.48l335.175 0.041c11.264 0 20.48 9.216 20.48 20.48 0.014 11.264-9.202 20.48-20.466 20.48z"  horiz-adv-x="1024" />

    
    <glyph glyph-name="shuangjiantouyou" unicode="&#58943;" d="M415.492 386.063l0.288 0.096-0.288 0.096-251.44 263.144c-42.019 40.292 37.989 124.425 83.077 85.38l315.14-320.416c15.925-15.733 14.774-43.073 0-56.408l-315.14-320.416c-45.088-39.045-125.096 45.088-83.077 85.38l251.44 263.144z m299.31-5.66l0.288 0.096-0.288 0.096-251.44 263.144c-42.019 40.292 37.989 124.425 83.078 85.38l315.14-320.416c15.925-15.733 14.774-43.073 0-56.408L546.44 31.879c-45.088-39.045-125.096 45.088-83.078 85.38l251.44 263.144z"  horiz-adv-x="1024" />

    
    <glyph glyph-name="document_fill" unicode="&#59123;" d="M833.728 555.872l-163.904 178.144c-7.744 8.448-18.4 15.552-29.824 21.28v-211.2l202.4-0.064c-2.752 4.192-5.536 8.448-8.64 11.84M640 320h-256a32 32 0 1 0 0 64h256a32 32 0 1 0 0-64m0-160h-256a32 32 0 1 0 0 64h256a32 32 0 1 0 0-64m223.808 320h-223.744A64.128 64.128 0 0 0 576 544.128V768H223.808A64 64 0 0 1 160 703.936v-639.84A64 64 0 0 1 223.744 0h576.512A64 64 0 0 1 864 64.16V478.368c0 0.544-0.16 1.12-0.192 1.664"  horiz-adv-x="1024" />

    
    <glyph glyph-name="wenjian" unicode="&#58880;" d="M509.792179 608.093896V896h-250.843767a53.418166 53.418166 0 0 1-53.40457-53.418166v-835.547672a53.40457 53.40457 0 0 1 53.40457-53.40457h598.055047a53.40457 53.40457 0 0 1 53.431762 53.40457V519.027364l-292.365548 1.48195c-111.282181 0.013596-108.277494 87.584582-108.277494 87.584582zM162.485728-41.89736700000003l4.459444 856.267775A53.431762 53.431762 0 0 1 113.540602 760.9522420000001v-835.52048a53.431762 53.431762 0 0 1 53.40457-53.431762h598.082239a53.513337 53.513337 0 0 1 50.698993 36.545694H201.83217s-43.044519-0.190342-39.346442 49.556939zM649.27219 565.9331090000001h261.163031L554.264264 896v-240.415736s-14.792305-89.651154 95.007926-89.651155z"  horiz-adv-x="1024" />

    
    <glyph glyph-name="wendang" unicode="&#58962;" d="M838.785863 636.274428H183.085239c-19.160083 0-36.191268-17.031185-36.191268-36.191268 0-19.160083 17.031185-36.191268 36.191268-36.191268h657.829522c19.160083 0 36.191268 17.031185 36.191268 36.191268 0 19.160083-17.031185 36.191268-38.320166 36.191268z m0-217.147609H183.085239c-12.773389 0-25.546778-6.386694-31.933472-19.160083-6.386694-10.644491-6.386694-25.546778 0-36.191268s19.160083-19.160083 31.933472-19.160083h657.829522c12.773389 0 25.546778 6.386694 31.933472 19.160083 6.386694 10.644491 6.386694 25.546778 0 36.191268-8.515593 12.773389-19.160083 19.160083-34.06237 19.160083z m0-217.147609H183.085239c-19.160083 0-36.191268-17.031185-36.191268-36.191268 0-19.160083 17.031185-36.191268 36.191268-36.191268h657.829522c19.160083 0 36.191268 17.031185 36.191268 36.191268 0 19.160083-17.031185 36.191268-38.320166 36.191268z m0 0M1009.097713 787.426195C981.422037 851.293139 919.683992 891.742204 851.559252 891.742204h-85.155926c-19.160083 0-36.191268-17.031185-36.191268-36.191268 0-19.160083 17.031185-36.191268 36.191268-36.191269l83.027027 2.128898c25.546778 0 51.093555-10.644491 70.253639-29.804573 19.160083-19.160083 29.804574-42.577963 29.804573-70.253639V44.440748c0-25.546778-10.644491-51.093555-29.804573-70.253638-19.160083-19.160083-44.706861-29.804574-70.253639-29.804574H172.440748c-25.546778 0-51.093555 10.644491-70.253638 29.804574-19.160083 19.160083-29.804574 44.706861-29.804574 70.253638V721.430353c0 55.351351 44.706861 97.929314 100.058212 97.929314H255.467775c12.773389 0 25.546778 6.386694 31.933472 19.160084 6.386694 10.644491 6.386694 25.546778 0 36.191268S268.241164 893.871102 255.467775 893.871102H172.440748C125.60499 893.871102 83.027027 874.711019 51.093555 842.777547S0 766.137214 0 721.430353V44.440748c0-44.706861 19.160083-89.413721 51.093555-121.347193s76.640333-51.093555 121.347193-51.093555h676.989605c44.706861 0 89.413721 17.031185 121.347194 51.093555 31.933472 31.933472 51.093555 76.640333 51.093555 121.347193V721.430353c0 23.417879-4.257796 44.706861-12.773389 65.995842z m0 0M402.361746 819.359667h219.276508c19.160083 0 36.191268 17.031185 36.191268 36.191269 0 19.160083-17.031185 36.191268-36.191268 36.191268H402.361746c-19.160083 0-36.191268-17.031185-36.191268-36.191268 0-19.160083 14.902287-36.191268 36.191268-36.191269z m0 0"  horiz-adv-x="1024" />

    
    <glyph glyph-name="xinghao" unicode="&#58935;" d="M512 896q102.4 0 102.4-102.4v-819.2q0-102.4-102.4-102.4T409.6-25.6V793.6Q409.6 896 512 896zM68.595 640q51.2 88.681 139.881 37.481l709.448-409.6q88.681-51.2 37.481-139.881-51.2-88.681-139.881-37.481l-709.448 409.6Q17.395 551.319 68.595 640zM68.595 128q-51.2 88.681 37.481 139.881l709.448 409.6q88.681 51.2 139.881-37.481 51.2-88.681-37.481-139.881l-709.448-409.6Q119.795 39.319 68.595 128zM512 896q102.4 0 102.4-102.4v-819.2q0-102.4-102.4-102.4T409.6-25.6V793.6Q409.6 896 512 896z"  horiz-adv-x="1024" />

    
    <glyph glyph-name="shouye" unicode="&#58881;" d="M950.784 128c0-19.968-16.384-36.352-36.352-36.352H109.568c-19.968 0-36.352 16.384-36.352 36.352v73.216h877.568V128zM109.568 822.784h804.352c19.968 0 36.352-16.384 36.352-36.352v-512H73.216v512c0 19.968 16.384 36.352 36.352 36.352zM914.432 896H109.568C49.152 896 0 846.848 0 786.432V128c0-60.416 49.152-109.568 109.568-109.568h365.568v-73.216h-256c-19.968 0-36.352-16.384-36.352-36.352 0-19.968 16.384-36.352 36.352-36.352h585.216c19.968 0 36.352 16.384 36.352 36.352 0 19.968-16.384 36.352-36.352 36.352h-256v73.216h365.568c60.416 0 109.568 49.152 109.568 109.568V786.432C1024 846.848 974.848 896 914.432 896z"  horiz-adv-x="1024" />

    
    <glyph glyph-name="anjianjiandududao" unicode="&#58883;" d="M595.456-40.448c-127.488 0-280.576 0.512-407.552 0.512V199.68c0 68.096 77.312 124.416 146.432 139.264 47.104-37.376 104.448-48.128 166.912-48.128s119.808 10.752 166.912 48.128c28.16-6.144 53.76-19.456 73.728-37.376 17.408 16.896 35.328 33.792 52.736 50.176-19.968 19.456-44.544 34.304-71.168 44.032 40.96 55.296 65.536 125.952 65.536 202.752C788.992 774.656 660.48 882.688 501.76 882.688S214.528 774.656 214.528 598.528c0-76.8 24.576-147.456 65.536-202.752-75.264-26.112-155.136-96.256-155.136-180.224v-318.976h473.6c-1.536 20.48-2.56 41.984-3.072 62.976zM277.504 598.528c0 140.8 99.84 220.16 223.232 220.16s223.232-79.36 223.232-220.16-99.84-243.712-223.232-243.712-223.232 102.4-223.232 243.712z m0 0M918.528 281.6c-46.592 35.328-112.64 26.112-147.968-19.968-20.48-27.136-26.624-63.488-16.384-95.744l-38.912-39.936-52.224 39.936c-17.92 13.824-43.52 10.24-57.344-7.68l-36.352-48.128c-13.824-17.92-10.24-43.52 8.192-57.344l209.92-159.232c7.168-5.632 15.872-8.192 24.576-8.192 2.048 0 3.584 0 5.632 0.512 10.752 1.536 20.48 7.168 27.136 15.872l36.352 48.128c6.656 8.704 9.216 19.456 7.68 30.208-1.536 10.752-7.168 20.48-15.872 27.136l-49.664 37.376 27.648 48.128c34.304-1.536 67.072 14.336 88.064 41.472 35.328 45.568 26.112 112.128-20.48 147.456z m-153.088-235.52l5.632-26.624 62.976-47.616-23.552-31.232-193.024 146.432 23.552 31.232 65.536-49.664 27.136 2.048 72.704 74.24 3.584 24.064-2.048 3.584c-10.24 18.432-8.704 41.472 4.096 58.368 8.704 11.264 21.504 18.944 35.84 20.48 14.336 2.048 28.672-2.048 40.448-10.752 24.064-17.92 28.672-52.224 10.752-75.776-12.8-16.896-34.304-24.576-55.296-19.968l-4.096 1.024-22.528-9.728-51.712-90.112z"  horiz-adv-x="1024" />

    
    <glyph glyph-name="baobeianjianguanli" unicode="&#58884;" d="M425.984-29.184a34.304 34.304 0 0 0 0-68.608H119.296c-58.88 0-106.496 48.64-106.496 108.544V757.76c0 59.904 47.616 108.544 106.496 108.544h613.376c58.88 0 106.496-48.64 106.496-108.544v-196.608a34.304 34.304 0 0 0-68.608 0V757.76c0 22.016-16.896 39.936-37.888 39.936H119.296c-20.48 0-37.888-17.408-37.888-39.936v-747.52c0-22.016 16.896-39.936 37.888-39.936h306.688zM735.744-29.184c114.176 0 206.848 92.672 206.848 206.848S849.92 384 735.744 384c-114.176 0-206.848-92.672-206.848-206.848s92.672-206.336 206.848-206.336z m0-69.12c-152.064 0-275.456 123.392-275.456 275.456s123.392 275.456 275.456 275.456c152.064 0 275.456-123.392 275.456-275.456s-123.392-275.456-275.456-275.456zM253.44 280.576a34.304 34.304 0 0 0 0 68.608H322.56a34.304 34.304 0 0 0 0-68.608H253.44z m0 275.456a34.304 34.304 0 0 0 0 68.608h344.576a34.304 34.304 0 0 0 0-68.608H253.44zM703.488 67.584h60.416V5.12h-60.416zM813.568 323.584c-19.456 17.408-44.544 26.112-74.752 26.112-13.824 0-28.16-2.048-41.472-6.656-13.312-4.608-26.112-11.776-36.864-21.504-11.264-9.728-19.456-20.992-24.064-33.792-4.608-11.776-7.168-27.648-7.68-47.616l-0.512-12.8h54.272l1.024 11.776c4.096 54.272 32.768 60.416 54.272 60.416 15.872 0 27.648-4.096 36.352-12.288 8.704-8.192 12.8-18.432 12.8-31.744 0-8.704-1.536-16.384-5.12-21.504-2.56-4.608-10.24-14.336-31.232-35.84-18.944-19.456-30.72-35.328-36.352-49.152-5.632-13.824-9.216-30.208-9.728-49.664l-0.512-12.8h56.832v12.288c0 22.016 2.56 32.256 5.12 36.864 2.048 4.096 8.704 14.336 32.256 36.352 18.432 17.408 30.208 30.72 36.352 41.472 6.144 11.264 9.216 24.576 9.216 39.936-0.512 28.16-10.752 52.224-30.208 70.144z"  horiz-adv-x="1024" />

    
    <glyph glyph-name="chulichufenzhihang" unicode="&#58885;" d="M426.496-34.816a34.304 34.304 0 0 0 0-68.608H122.88c-58.368 0-105.472 48.64-105.472 107.52V744.96c0 59.392 47.104 107.52 105.472 107.52h607.744c58.368 0 105.472-48.64 105.472-107.52v-194.56a34.304 34.304 0 0 0-68.608 0v194.56c0 22.016-16.896 39.424-37.376 39.424H122.88c-20.48 0-37.376-17.408-37.376-39.424v-740.352c0-22.016 16.896-39.424 37.376-39.424h303.616zM733.696-34.816c113.152 0 204.8 91.648 204.8 204.8s-91.648 204.8-204.8 204.8-204.8-91.648-204.8-204.8 91.648-204.8 204.8-204.8z m0-68.096c-150.528 0-272.896 122.368-272.896 272.896s122.368 272.896 272.896 272.896 272.896-122.368 272.896-272.896-121.856-272.896-272.896-272.896zM256 306.688a34.304 34.304 0 0 0 0 68.608h302.08a34.304 34.304 0 0 0 0-68.608H256zM231.936 662.528a33.9968 33.9968 0 0 0 0 48.128c13.312 13.312 34.816 13.312 48.128 0l213.504-213.504c13.312-13.312 13.312-34.816 0-48.128a33.9968 33.9968 0 0 0-48.128 0L231.936 662.528zM280.064 448.512a33.9968 33.9968 0 0 0-48.128 0 33.9968 33.9968 0 0 0 0 48.128L445.44 710.656c13.312 13.312 34.816 13.312 48.128 0 13.312-13.312 13.312-34.816 0-48.128L280.064 448.512zM256 91.648a34.304 34.304 0 0 0 0 68.608h239.104a34.304 34.304 0 0 0 0-68.608H256zM528.896 545.28a34.304 34.304 0 0 0 0 68.608h68.096a34.304 34.304 0 0 0 0-68.608h-68.096zM777.728 44.032c-2.048 6.656-6.656 10.752-9.728 14.336-4.096 4.096-10.24 7.68-15.872 10.24l-1.024 0.512c-4.608 1.536-9.728 3.072-16.896 3.072-7.68 0-13.312-1.536-18.432-3.584-5.632-2.048-11.776-5.632-15.36-9.728-4.096-3.584-7.68-8.192-10.24-14.848l-0.512-1.536c-1.536-4.608-3.072-9.728-3.072-14.848 0-6.656 1.536-10.752 2.56-14.336 0-0.512 0.512-1.536 1.024-2.56 2.048-6.656 6.656-10.752 9.728-14.336l1.024-1.024c1.024-0.512 2.048-1.536 3.072-2.048 3.072-2.56 6.656-5.12 11.776-6.656l1.024-0.512c4.608-1.536 9.728-3.072 16.896-3.072 7.68 0 13.312 1.536 18.432 3.584 5.632 2.048 11.776 5.632 15.36 9.728 4.096 3.584 7.68 8.192 10.24 14.848l0.512 1.536c1.536 4.608 3.072 9.216 3.072 14.848 0 6.144-2.048 11.776-3.584 16.384zM768.512 88.064l8.192 247.808h-89.088l8.192-247.808z"  horiz-adv-x="1024" />

    
    <glyph glyph-name="shensufuchaanjian" unicode="&#58886;" d="M975.872 412.16c-26.112 26.112-434.688 436.224-436.736 437.76-7.68 7.68-18.944 11.776-33.28 11.776-12.8 0-23.552-4.096-31.232-11.776l-435.2-443.904-2.048-2.048v-14.336c0-22.016 7.68-43.52 20.992-59.904 13.312-16.896 31.744-26.624 48.128-26.624h53.248v-305.664c0-62.976 44.032-91.136 88.064-91.136h180.736v339.968c0 1.024 0.512 1.536 1.024 2.56h165.376c0.512-1.536 1.024-3.072 1.536-3.584 0.512-9.216 0-227.328 0-299.008v-40.448h174.08c32.256 0 59.392 14.848 78.336 43.52 12.288 17.92 16.896 35.84 17.92 39.424l1.024 3.072 1.024 312.832h51.2c23.552 0 43.008 10.752 54.784 29.696 8.192 13.312 12.288 30.72 12.288 52.736v14.336l-11.264 10.752z m-177.664-37.376l-1.024-372.224c-3.072-8.704-11.264-26.112-26.624-26.112h-103.936c0 44.032 0.512 260.096 0 271.36-0.512 10.24-4.096 26.624-13.312 40.96-12.8 19.456-31.744 30.208-53.248 30.208H425.472c-36.352 0-68.096-33.792-68.096-72.192v-270.336H247.296c-13.312 0-17.408 5.12-17.408 21.504v375.296H114.176c-1.024 1.024-2.048 3.072-3.584 5.12L507.392 783.36l406.528-408.064h-115.712z m0 0"  horiz-adv-x="1024" />

    
    <glyph glyph-name="shenliyewushezhi" unicode="&#58887;" d="M640 625.152v-2.56c-0.512 1.024-0.512 2.048 0 2.56-0.512 1.024 0 1.536 0 2.56v-2.56z m273.408-381.952h-310.784c-13.312 0-26.112-8.192-30.72-20.992-8.704-25.088-32.256-43.008-60.416-43.008s-51.712 17.92-60.416 43.008c-4.608 12.8-16.896 20.992-30.72 20.992H112.128c-52.736 0-95.744-43.008-95.744-95.744v-127.488c0-52.736 43.008-95.744 95.744-95.744H911.36c52.736 0 95.744 43.008 95.744 95.744v127.488c1.536 52.224-40.96 95.744-93.696 95.744z m31.744-223.744c0-17.408-14.336-31.744-31.744-31.744H113.152c-17.408 0-31.744 14.336-31.744 31.744v128c0 17.408 14.336 31.744 31.744 31.744h288.256c22.016-38.4 63.488-64 110.592-64 47.104 0 88.576 25.6 110.592 64h290.816c17.408 0 31.744-14.336 31.744-31.744v-128z m-240.64 446.976h-256c-17.408 0-31.744 14.336-31.744 31.744s14.336 31.744 31.744 31.744h256c17.408 0 31.744-14.336 31.744-31.744 0-17.408-14.336-31.744-31.744-31.744z m1.024 126.976h-256c-17.408 0-31.744 14.336-31.744 31.744s14.336 31.744 31.744 31.744h256c17.408 0 31.744-14.336 31.744-31.744 0-17.408-14.336-31.744-31.744-31.744z m-1.024-254.976h-256c-17.408 0-31.744 14.336-31.744 31.744 0 17.408 14.336 31.744 31.744 31.744h256c17.408 0 31.744-14.336 31.744-31.744 0-17.408-14.336-31.744-31.744-31.744z m0 0M259.072 748.032v-513.024c0-17.408 14.336-31.744 31.744-31.744h65.024c17.408 0-33.28 14.336-33.28 31.744V748.032c0 17.408 14.336 31.744 31.744 31.744h442.88c17.408 0 31.744-14.336 31.744-31.744v-513.024c0-17.408 14.336-31.744 31.744-31.744 17.408 0 31.744 14.336 31.744 31.744V748.032c0 52.736-43.008 95.744-95.744 95.744H354.816c-52.736-0.512-95.744-43.008-95.744-95.744z m0 0M227.84 779.776c-52.736 0-95.744-43.008-95.744-95.744v-473.088h64V684.032c0 17.408 14.336 31.744 31.744 31.744h55.808V779.776H227.84z m0 0"  horiz-adv-x="1024" />

    
    <glyph glyph-name="xitongguanli" unicode="&#58888;" d="M945.152 122.88v-61.952c0-37.376-24.576-61.952-61.952-61.952H139.776c-37.376 0-61.952 24.576-61.952 61.952V122.88h867.328m62.464 61.952H15.36v-123.904c0-68.096 55.808-123.904 123.904-123.904h743.936c68.096 0 123.904 55.808 123.904 123.904v123.904z m0 0M821.248 742.912c37.376 0 61.952-24.576 61.952-61.952v-496.128H139.776V680.96c0 37.376 24.576 61.952 61.952 61.952h619.52m0 61.952h-619.52C133.12 804.864 77.312 749.056 77.312 680.96v-558.08h867.84V680.96c0 68.096-55.808 123.904-123.904 123.904z m0 0M77.312 618.496h867.84v-68.096H77.312V618.496z m220.16-154.624h427.52a34.304 34.304 0 0 0 0-68.608H297.472c-18.944 0-34.304 15.36-34.304 34.304 0.512 18.944 15.36 34.304 34.304 34.304z m0-123.904h303.616a34.304 34.304 0 0 0 0-68.608H297.472c-18.944 0-34.304 15.36-34.304 34.304 0.512 18.944 15.36 34.304 34.304 34.304z m-33.792 0"  horiz-adv-x="1024" />

    
    <glyph glyph-name="yisonganjiandengji" unicode="&#58889;" d="M476.672-47.104c19.968 0 35.84-15.872 35.84-35.84s-15.872-35.84-35.84-35.84H156.672c-61.44 0-111.104 50.688-111.104 113.152V773.632c0 62.464 49.664 113.152 111.104 113.152h639.488c61.44 0 111.104-50.688 111.104-113.152v-204.8c0-19.968-15.872-35.84-35.84-35.84s-35.84 15.872-35.84 35.84v204.8c0 23.04-17.92 41.472-39.424 41.472H156.672c-21.504 0-39.424-18.432-39.424-41.472v-779.264c0-23.04 17.92-41.472 39.424-41.472h320zM296.96 563.712c-19.968 0-35.84 15.872-35.84 35.84s15.872 35.84 35.84 35.84h359.424c19.968 0 35.84-15.872 35.84-35.84s-15.872-35.84-35.84-35.84H296.96zM296.96 339.968c-19.968 0-35.84 15.872-35.84 35.84s15.872 35.84 35.84 35.84h359.424c19.968 0 35.84-15.872 35.84-35.84s-15.872-35.84-35.84-35.84H296.96zM296.96 116.224c-19.968 0-35.84 15.872-35.84 35.84s15.872 35.84 35.84 35.84h132.608c19.968 0 35.84-15.872 35.84-35.84s-15.872-35.84-35.84-35.84H296.96zM962.048 333.312l-63.488 63.488c-10.752 10.752-24.576 16.384-39.424 16.384-14.848 0-29.184-6.144-39.424-16.384l-162.816-162.816-114.176-114.176v-108.544c0-18.944 15.36-33.792 33.792-33.792h108.544l114.176 114.176 162.816 162.816c10.752 10.752 16.384 24.576 16.384 39.424 0 14.848-5.632 29.184-16.384 39.424z m-58.368-50.688l-251.904-250.368h-54.272v54.272l251.904 250.368c4.608 4.608 11.264 7.68 17.92 7.68s13.312-2.56 17.92-7.68l17.92-17.92c10.24-10.24 10.24-26.112 0.512-36.352z"  horiz-adv-x="1024" />

    
    <glyph glyph-name="zibananjianguanli" unicode="&#58890;" d="M100.352 795.648v-299.52h299.52V795.648H100.352z m0 74.752h299.52c41.472 0 74.752-33.28 74.752-74.752v-299.52c0-41.472-33.28-74.752-74.752-74.752H100.352C58.88 421.376 25.6 455.168 25.6 496.128V795.648C25.6 837.12 58.88 870.4 100.352 870.4z m0-598.528v-299.52h299.52v299.52H100.352z m0 74.752h299.52c19.968 0 38.912-7.68 52.736-22.016 13.824-13.824 22.016-33.28 22.016-52.736v-299.52c0-19.968-7.68-38.912-22.016-52.736-13.824-13.824-33.28-22.016-52.736-22.016H100.352c-19.968 0-38.912 7.68-52.736 22.016C33.28-66.56 25.6-47.616 25.6-27.648v299.52c0 19.968 7.68 38.912 22.016 52.736 13.824 14.336 32.768 22.016 52.736 22.016z m673.792 449.024c-82.432 0-149.504-67.072-149.504-149.504S691.712 496.64 774.144 496.64s149.504 67.072 149.504 149.504-67.072 149.504-149.504 149.504z m0 74.752c80.384 0 154.112-43.008 194.56-112.128 39.936-69.632 39.936-155.136 0-224.768-39.936-69.632-114.176-112.128-194.56-112.128-123.904 0-224.768 100.352-224.768 224.768 0 123.904 100.352 224.256 224.768 224.256z m-150.016-598.528v-299.52h299.52v299.52h-299.52z m0 74.752h299.52c19.968 0 38.912-7.68 52.736-22.016 13.824-13.824 22.016-33.28 22.016-52.736v-299.52c0-19.968-7.68-38.912-22.016-52.736-13.824-13.824-33.28-22.016-52.736-22.016h-299.52c-19.968 0-38.912 7.68-52.736 22.016-13.824 13.824-22.016 33.28-22.016 52.736v299.52c0 19.968 7.68 38.912 22.016 52.736 13.824 14.336 33.28 22.016 52.736 22.016z m0 0"  horiz-adv-x="1024" />

    
    <glyph glyph-name="yisongsifajiguan" unicode="&#58891;" d="M798.72 739.84H227.328c-19.456 0-34.816 15.872-34.816 34.816 0 19.456 15.872 34.816 34.816 34.816H798.72c19.456 0 34.816-15.872 34.816-34.816-0.512-18.944-15.36-34.816-34.816-34.816z m0 0M851.968-60.416H173.568c-19.456 0-34.816 15.872-34.816 34.816 0 19.456 15.872 34.816 34.816 34.816h678.4c19.456 0 34.816-15.872 34.816-34.816 0-19.456-15.36-34.816-34.816-34.816z m0 0M687.104 31.232H338.432c-19.456 0-34.816 15.872-34.816 34.816 0 19.456 15.872 34.816 34.816 34.816h348.16c19.456 0 34.816-15.872 34.816-34.816 0.512-18.944-15.36-34.816-34.304-34.816z m0 0M511.488 31.232c-19.456 0-34.816 15.872-34.816 34.816V775.168c0 19.456 15.872 34.816 34.816 34.816 18.944 0 34.816-15.872 34.816-34.816V66.56c0-19.456-15.36-35.328-34.816-35.328z m0 0M224.256 322.048c-103.424 0-187.904 84.48-187.904 187.904 0 6.144 2.048 12.288 5.12 17.408L194.56 792.576c6.144 10.752 17.408 17.408 30.208 17.408 12.288 0 23.552-6.656 30.208-17.408l153.6-265.216c3.072-5.632 5.12-11.776 5.12-17.408-1.536-103.936-86.016-187.904-189.44-187.904z m-117.76 178.688c4.096-60.928 55.808-109.568 117.76-109.568s113.152 48.128 117.76 109.568l-117.76 204.288-117.76-204.288z m0 0M284.16 467.456H164.864c-19.456 0-34.816 15.872-34.816 34.816 0 18.944 15.872 34.816 34.816 34.816h119.808c19.456 0 34.816-15.872 34.816-34.816-0.512-18.944-15.872-34.816-35.328-34.816z m0 0M798.72 322.048c-103.424 0-187.904 84.48-187.904 187.904 0 6.144 2.048 12.288 4.608 17.408l153.088 265.216c6.144 10.752 17.408 17.408 30.208 17.408 12.288 0 23.552-6.656 30.208-17.408L983.04 527.36c3.072-5.632 5.12-11.776 5.12-17.408-1.536-103.936-86.016-187.904-189.44-187.904z m-118.272 178.688c4.096-60.928 55.808-109.568 117.76-109.568s113.152 48.128 117.76 109.568l-117.76 204.288-117.76-204.288z m0 0M858.112 467.456h-119.808c-19.456 0-34.816 15.872-34.816 34.816 0 18.944 15.872 34.816 34.816 34.816h119.808c19.456 0 34.816-15.872 34.816-34.816 0-18.944-15.36-34.816-34.816-34.816z m0 0"  horiz-adv-x="1024" />

    
    <glyph glyph-name="qiantaozhongzhiqingkuang" unicode="&#58901;" d="M421.376-22.016c18.432 0 33.792-15.36 33.792-33.792 0-18.432-15.36-33.792-33.792-33.792H120.32c-57.856 0-104.448 48.128-104.448 106.496V751.104C15.36 809.472 61.952 857.6 120.32 857.6h602.624c57.856 0 104.448-48.128 104.448-106.496V558.08c0-18.432-15.36-33.792-33.792-33.792-18.432 0-33.792 15.36-33.792 33.792V751.104c0 22.016-16.896 38.912-36.864 38.912H120.32c-20.48 0-36.864-17.408-36.864-38.912v-733.696c0-22.016 16.896-38.912 36.864-38.912h301.056zM252.416 282.624c-18.432 0-33.792 15.36-33.792 33.792 0 18.432 15.36 33.792 33.792 33.792H517.12c18.432 0 33.792-15.36 33.792-33.792 0-18.432-15.36-33.792-33.792-33.792H252.416z m0 270.336c-18.432 0-33.792 15.36-33.792 33.792 0 18.432 15.36 33.792 33.792 33.792h338.432c18.432 0 33.792-15.36 33.792-33.792 0-18.432-15.36-33.792-33.792-33.792H252.416zM779.776 390.144c-129.536 0-235.008-105.472-235.008-235.008 0-129.536 105.472-235.008 235.008-235.008 129.536 0 235.008 105.472 235.008 235.008 0 129.536-105.472 235.008-235.008 235.008z m143.36-132.096c22.016-30.208 33.28-65.536 33.28-102.912 0-97.792-79.36-177.152-177.152-177.152-37.376 0-72.704 11.776-102.912 33.28l246.784 246.784z m-40.448 40.448l-246.272-246.272c-22.016 30.208-33.28 65.536-33.28 102.912 0 97.792 79.36 177.152 177.152 177.152 36.352 0 72.192-11.776 102.4-33.792z"  horiz-adv-x="1024" />

    
    <glyph glyph-name="tiaochajibenqingkuang" unicode="&#58902;" d="M570.88 751.104h-209.92c-26.112 0-52.224-19.456-52.224-52.224v-170.496c0-26.112 19.456-52.224 52.224-52.224h209.92c26.112 0 52.224 19.456 52.224 52.224V698.368c-6.144 26.624-26.112 52.736-52.224 52.736z m-19.456-209.92H374.272V685.568H558.08l-6.656-144.384z m281.6 137.728h-124.416c-19.456 0-32.768 13.312-32.768 32.768 0 13.312 13.312 32.768 32.768 32.768h124.416c19.456 0 32.768-13.312 32.768-32.768 0-19.456-12.8-32.768-32.768-32.768m0-104.96h-124.416c-19.456 0-32.768 13.312-32.768 32.768 0 19.456 13.312 32.768 32.768 32.768h124.416c19.456 0 32.768-13.312 32.768-32.768 0-19.456-12.8-32.768-32.768-32.768m0-98.304h-124.416c-19.456 0-32.768 13.312-32.768 32.768 0 19.456 13.312 32.768 32.768 32.768h124.416c19.456 0 32.768-13.312 32.768-32.768 0-19.456-12.8-32.768-32.768-32.768m0-137.728H374.272c-19.456 0-32.768 13.312-32.768 32.768 0 19.456 13.312 32.768 32.768 32.768h458.752c19.456 0 32.768-13.312 32.768-32.768 0-19.456-12.8-32.768-32.768-32.768m0-124.416H374.272c-19.456 0-32.768 13.312-32.768 32.768 0 19.456 13.312 32.768 32.768 32.768h458.752c19.456 0 32.768-13.312 32.768-32.768 0-19.456-12.8-32.768-32.768-32.768m0-124.416H374.272c-19.456 0-32.768 13.312-32.768 32.768 0 19.456 13.312 32.768 32.768 32.768h458.752c19.456 0 32.768-13.312 32.768-32.768 0-19.456-12.8-32.768-32.768-32.768M937.984-9.216c0-19.456-13.312-32.768-32.768-32.768H118.784c-19.456 0-32.768 13.312-32.768 32.768V672.256c0 19.456 13.312 32.768 32.768 32.768h52.224v-596.48c0-19.456 13.312-32.768 32.768-32.768 19.456 0 32.768 13.312 32.768 32.768V777.216c0 19.456 13.312 32.768 32.768 32.768h635.904c19.456 0 32.768-13.312 32.768-32.768v-786.432zM905.216 875.52H269.312c-52.224 0-98.304-46.08-98.304-98.304v-6.656H118.784C66.048 770.56 20.48 724.992 20.48 672.256v-681.472C20.48-61.44 66.56-107.52 118.784-107.52h786.432c52.224 0 98.304 46.08 98.304 98.304V777.216C1003.52 829.952 957.952 875.52 905.216 875.52z m0 0"  horiz-adv-x="1024" />

    
    <glyph glyph-name="anjianfenfaxinxi" unicode="&#58903;" d="M427.008-24.576c18.944 0 33.792-15.36 33.792-33.792 0-18.944-15.36-33.792-33.792-33.792H123.904c-58.368 0-105.472 48.128-105.472 107.52V753.152c0 58.88 47.104 107.52 105.472 107.52h606.208c58.368 0 105.472-48.128 105.472-107.52v-194.048c0-18.944-15.36-33.792-33.792-33.792-18.944 0-33.792 15.36-33.792 33.792V753.152c0 22.016-16.896 39.424-37.376 39.424H123.904c-20.48 0-37.376-17.408-37.376-39.424v-738.304c0-22.016 16.896-39.424 37.376-39.424h303.104zM733.184-24.576c112.64 0 204.288 91.648 204.288 204.288S845.824 384 733.184 384s-204.288-91.648-204.288-204.288 91.648-204.288 204.288-204.288z m0-68.096c-150.528 0-272.384 121.856-272.384 272.384s121.856 272.384 272.384 272.384c150.528 0 272.384-121.856 272.384-272.384s-121.856-272.384-272.384-272.384zM256.512 282.112c-18.944 0-33.792 15.36-33.792 33.792 0 18.944 15.36 33.792 33.792 33.792h68.096c18.944 0 33.792-15.36 33.792-33.792 0-18.944-15.36-33.792-33.792-33.792H256.512z m0 271.872c-18.944 0-33.792 15.36-33.792 33.792 0 18.944 15.36 33.792 33.792 33.792h340.48c18.944 0 33.792-15.36 33.792-33.792 0-18.944-15.36-33.792-33.792-33.792H256.512zM884.736 179.712c0 5.632-1.536 11.776-4.608 16.384l-89.088 79.872c-7.168 3.584-15.36 4.096-23.04 1.536-10.752-3.584-18.944-12.8-21.504-23.552-1.536-8.192 0-16.384 4.096-23.04l19.456-19.456h-156.16c-17.408 0-31.744-14.336-31.744-31.744 0-17.408 14.336-31.744 31.744-31.744h156.16c-6.656-6.656-13.312-13.312-19.456-19.968-4.096-6.656-5.632-14.848-3.584-22.528 2.56-11.264 10.752-20.48 21.504-23.552 3.072-1.024 6.656-1.536 9.728-1.536 4.608 0 9.216 1.024 13.312 3.072l89.088 79.872c1.024 2.048 2.56 4.608 3.584 7.68 0.512 3.584 0.512 6.656 0.512 8.704z"  horiz-adv-x="1024" />

    
    <glyph glyph-name="beishenchatiaocharenyuan" unicode="&#58904;" d="M603.136-33.792c-128 0-281.6 0.512-409.088 0.512v240.128c0 68.096 77.312 124.928 146.944 139.776 47.104-37.376 104.96-48.128 167.424-48.128s120.32 10.752 167.424 48.128c28.16-6.144 53.76-19.456 73.728-37.376 17.408 16.896 35.328 33.792 53.248 50.176-19.968 19.456-44.544 34.816-71.68 44.032 40.96 55.296 65.536 126.464 65.536 203.264C796.672 783.872 667.648 891.904 508.416 891.904 349.184 891.904 220.16 783.36 220.16 606.72c0-77.312 24.576-147.968 65.536-203.264-75.776-25.6-155.648-96.256-155.648-180.224V-97.28h475.136c-0.512 20.992-1.536 42.496-2.048 63.488zM283.648 607.744c0 141.312 100.352 221.184 224.256 221.184 123.904 0 224.256-79.872 224.256-221.184s-100.352-244.736-224.256-244.736S283.648 465.92 283.648 607.744z m0 0M966.656-75.776l-84.992 84.992c20.48 28.672 31.232 64 31.232 98.816 0 18.944-3.072 37.888-9.728 56.32-30.72 89.6-129.024 137.216-218.624 105.984-69.12-24.064-115.712-89.088-115.712-162.304 0-18.944 3.072-37.888 9.728-56.32 14.848-43.52 46.08-78.336 87.04-98.304 41.472-19.968 88.064-23.04 131.072-7.68 15.36 5.12 29.696 12.8 43.008 22.016l84.992-84.992c4.608-4.608 10.752-7.168 16.896-7.68h1.024c6.144 0 11.776 2.56 16.384 6.656l8.192 8.192c4.096 4.096 6.656 10.24 6.656 16.384 0.512 6.656-2.56 12.8-7.168 17.92z m-111.616 184.32c0-48.64-30.72-92.16-76.8-108.032-28.672-9.728-59.904-8.192-87.04 5.12-27.136 13.312-48.128 36.352-57.856 65.536-4.096 12.288-6.144 24.576-6.144 37.376 0 48.64 30.72 92.16 76.8 108.032 12.288 4.096 24.576 6.144 37.376 6.144 16.896 0 33.792-4.096 49.664-11.776 27.136-13.312 48.128-36.352 57.856-65.536 4.096-11.776 6.144-24.576 6.144-36.864zM775.68 334.848m-36.864 0a36.864 36.864 0 1 1 73.728 0 36.864 36.864 0 1 1-73.728 0ZM604.16-65.536m-31.744 0a31.744 31.744 0 1 1 63.488 0 31.744 31.744 0 1 1-63.488 0Z"  horiz-adv-x="1024" />

    
    <glyph glyph-name="sheankuanwujibenqingkuang" unicode="&#58905;" d="M809.472 456.192c-13.824 16.896-28.16 33.28-42.496 48.64-37.888 41.472-73.216 81.408-76.288 114.688 3.584 8.704 19.968 29.184 31.232 43.52 39.424 49.152 83.456 104.96 45.568 143.36-27.136 27.136-95.232 73.216-241.152 73.216-110.592 0-191.488-24.576-241.152-73.216-38.4-37.888 6.144-93.696 45.056-142.848 11.264-14.336 28.16-34.816 31.744-43.52-4.096-31.232-40.96-68.608-76.288-104.96-18.432-18.944-37.888-38.912-54.784-59.392-90.112-110.592-132.608-166.4-130.56-271.36 5.632-279.552 262.656-296.448 415.232-296.448 274.944 0 416.768 83.968 420.864 297.984 2.56 107.008-39.424 162.304-126.976 270.336m-293.888-514.048c-235.52 0-356.864 65.536-360.96 243.2-2.048 91.648 36.864 135.68 118.272 236.032 15.36 18.944 33.792 37.376 51.712 55.808 45.056 46.08 88.064 89.6 91.648 141.312 1.536 20.992-13.824 41.472-43.52 78.848-14.848 18.944-45.568 57.344-47.616 72.192 48.128 46.08 135.68 55.808 200.704 55.808 126.976 0 181.76-37.376 200.704-55.808-1.536-14.848-32.768-53.76-47.616-72.704-28.672-36.352-44.032-56.32-43.008-77.312 2.56-53.76 45.568-100.864 90.624-151.04 13.824-15.36 28.16-31.232 40.96-46.592 79.36-97.792 116.736-141.312 115.2-234.496-2.048-66.56-6.144-245.248-367.104-245.248z m26.112 367.616c-5.632 3.584-10.752 6.656-14.848 9.728-25.6 17.92-41.472 36.352-44.032 50.688-0.512 4.608-1.024 11.776 6.144 21.504 7.68 10.24 18.432 15.872 33.28 16.896 21.504 1.536 43.008-8.192 49.664-15.36 10.24-11.264 27.648-11.776 38.4-1.536 10.752 10.24 11.776 27.648 1.536 38.4-15.36 16.384-41.984 28.16-69.12 31.744v15.36c0 14.848-12.288 27.136-27.136 27.136s-27.136-12.288-27.136-27.136v-20.992c-17.408-6.656-32.256-17.408-43.008-32.768-13.824-19.456-19.456-40.96-15.872-62.464 5.12-30.208 27.136-59.392 66.048-86.528 4.608-3.584 10.752-7.168 16.896-11.264 53.76-34.304 66.56-51.712 54.272-75.264-6.656-12.288-18.944-20.992-34.816-23.04-21.504-3.072-44.032 5.12-61.44 23.04-10.752 10.752-27.648 10.752-38.4 0-10.752-10.752-10.752-27.648 0-38.4 16.384-16.896 35.84-28.16 56.32-34.304v-45.568c0-14.848 12.288-27.136 27.136-27.136s27.136 12.288 27.136 27.136v42.496c31.744 5.632 57.856 24.064 72.192 51.2 39.424 74.752-36.864 122.88-73.216 146.432z m0-24.576"  horiz-adv-x="1024" />

    
    <glyph glyph-name="shangchuancailiaoxinxi" unicode="&#58906;" d="M640 642.048v-2.56c-0.512 1.024-0.512 2.048 0 2.56-0.512 1.024 0 1.536 0 2.56v-2.56z m273.92-382.464h-310.784c-13.312 0-26.112-8.192-30.72-20.992-8.704-25.088-32.256-43.008-60.416-43.008-28.16 0-51.712 17.92-60.416 43.008-4.608 12.8-16.896 20.992-30.72 20.992H112.128c-52.736 0-95.744-43.008-95.744-95.744v-127.488c0-52.736 43.008-95.744 95.744-95.744h800.256c52.736 0 95.744 43.008 95.744 95.744V163.84c1.024 52.736-41.984 95.744-94.208 95.744z m31.232-223.744c0-17.408-14.336-31.744-31.744-31.744H112.64c-17.408 0-31.744 14.336-31.744 31.744v128c0 17.408 14.336 31.744 31.744 31.744h288.768c22.016-38.4 63.488-64 110.592-64 47.104 0 88.576 25.6 110.592 64h290.816c17.408 0 31.744-14.336 31.744-31.744v-128z m-240.64 319.488h-256c-17.408 0-31.744 14.336-31.744 31.744 0 17.408 14.336 31.744 31.744 31.744h256c17.408 0 31.744-14.336 31.744-31.744 0-17.408-14.336-31.744-31.744-31.744z m0 0M259.072 764.928v-513.536c0-17.408 14.336-31.744 31.744-31.744h65.024c17.408 0-33.28 14.336-33.28 31.744V764.928c0 17.408 14.336 31.744 31.744 31.744h443.392c17.408 0 31.744-14.336 31.744-31.744v-513.536c0-17.408 14.336-31.744 31.744-31.744s31.744 14.336 31.744 31.744V764.928c0 52.736-43.008 95.744-95.744 95.744H354.816c-53.248-0.512-95.744-43.008-95.744-95.744z m0 0M227.328 796.672c-52.736 0-95.744-43.008-95.744-95.744v-473.6h64V700.928c0 17.408 14.336 31.744 31.744 31.744h55.808V796.672H227.328z m0 0M576 687.616c-6.656 0-12.8-3.072-17.408-7.68L487.936 602.112c-5.632-6.144-7.68-14.848-5.12-23.04s9.216-13.824 17.408-15.872c8.192-1.536 16.896 1.024 22.528 7.168l29.696 32.768v-136.192c0-12.8 10.24-23.552 23.552-23.552 12.8 0 23.552 10.24 23.552 23.552V603.136l29.184-32.768c5.632-6.144 13.824-9.216 22.528-7.168 8.192 1.536 14.848 7.68 17.408 15.872s0.512 16.896-5.12 23.04l-70.144 78.336c-4.608 4.608-10.752 7.168-17.408 7.168z m0 0"  horiz-adv-x="1024" />

    
    <glyph glyph-name="tiaochajibenxinxi" unicode="&#58907;" d="M466.944-20.992a34.304 34.304 0 0 0 0-68.608H111.616C52.736-89.6 5.12-40.96 5.12 18.432V763.392C5.12 822.784 52.736 871.424 111.616 871.424h611.328c58.88 0 106.496-48.64 106.496-108.032v-195.584a34.304 34.304 0 0 0-68.608 0V763.392c0 22.016-16.896 39.424-37.376 39.424H111.616c-20.48 0-37.376-17.408-37.376-39.424v-744.448c0-22.016 16.896-39.424 37.376-39.424h355.328zM245.248 287.744a34.304 34.304 0 0 0 0 68.608h93.696a34.304 34.304 0 0 0 0-68.608H245.248zM245.248 562.688a34.304 34.304 0 0 0 0 68.608h343.04a34.304 34.304 0 0 0 0-68.608h-343.04zM731.648 69.632c-46.592-16.384-96.768-13.312-141.312 8.704-44.544 21.504-77.824 59.392-93.696 105.984-6.656 19.456-10.24 39.936-10.24 60.416 0 78.848 50.176 148.992 124.416 174.592 46.592 16.384 96.768 13.312 141.312-8.704 44.544-21.504 77.824-59.392 94.208-105.984 6.656-19.456 10.24-39.936 10.24-60.416-0.512-78.848-50.688-148.992-124.928-174.592z m278.528-115.2l-136.704 136.704c32.768 43.52 51.2 97.28 51.2 153.088 0 27.648-4.608 55.296-13.824 82.944-45.568 132.608-190.464 202.752-322.56 156.672-104.96-36.352-171.008-134.656-171.008-239.616 0-27.648 4.608-55.296 13.824-82.944 46.08-132.608 190.464-202.752 322.56-156.672 25.6 8.704 49.152 21.504 70.144 37.376l136.704-136.704c11.264-11.264 28.16-11.776 38.4-1.536l12.288 12.288c10.752 10.24 9.728 27.648-1.024 38.4z m0 0"  horiz-adv-x="1024" />

    
    <glyph glyph-name="weijihangwei" unicode="&#58908;" d="M826.88 805.888h-73.728C741.376 855.04 697.344 890.368 646.656 890.368H376.832C324.608 890.368 282.112 855.04 270.336 805.888H197.12c-64 0-116.224-52.224-116.224-118.272v-691.712c0-65.536 52.224-118.272 116.224-118.272h629.76c64 0 116.224 52.224 116.224 118.272V687.616c0 66.048-52.224 118.272-116.224 118.272z m-492.032-25.6c0 23.552 18.432 41.984 41.984 41.984h269.824c23.552 0 41.984-18.432 41.984-41.984v-16.896c0-23.552-18.432-41.984-41.984-41.984H376.832c-23.552 0-41.984 18.432-41.984 41.984v16.896z m541.184-784.384c0-28.672-22.016-50.688-49.152-50.688h-629.76c-27.136 0-49.152 22.016-49.152 50.688V687.616c0 28.672 22.016 50.688 49.152 50.688h73.728c11.776-49.152 55.808-84.48 106.496-84.48h269.824c52.224 0 94.72 35.328 106.496 84.48h73.728c27.136 0 49.152-22.016 49.152-50.688v-691.712z m0 0M691.712 499.2H324.096c-18.432 0-32.256 15.36-32.256 33.792 0 18.432 15.36 33.792 32.256 33.792H691.2c18.432 0 32.256-15.36 32.256-33.792 0-18.432-13.312-33.792-31.744-33.792zM512 77.312c87.552 0 158.72 71.168 158.72 158.72s-71.168 158.72-158.72 158.72-158.72-71.168-158.72-158.72 71.168-158.72 158.72-158.72z m0-52.736c-116.736 0-211.456 94.72-211.456 211.456S395.264 448 512 448c116.736 0 211.456-94.72 211.456-211.456s-94.72-211.968-211.456-211.968zM538.624 174.08l6.656 192H476.16l6.656-192zM545.792 139.776c-1.536 5.12-5.12 8.192-7.68 10.752-3.584 3.584-7.68 6.144-12.288 7.68h-1.024c-3.584 1.024-7.68 2.56-13.312 2.56s-10.24-1.536-14.336-2.56c-4.096-1.536-8.704-4.608-12.288-7.68-3.072-3.072-6.144-6.144-7.68-11.264l-0.512-1.024c-1.024-3.584-2.048-7.168-2.048-11.776 0-5.12 1.024-8.192 2.048-11.264l0.512-2.048c1.536-5.12 5.12-8.192 7.68-10.752h1.536c1.024-0.512 1.536-1.024 2.56-1.536 2.56-2.048 5.12-4.096 9.216-5.12h1.024c3.584-1.024 7.68-2.56 13.312-2.56 6.144 0 10.24 1.536 14.336 2.56 4.096 1.536 9.216 4.608 12.288 7.68 3.072 3.072 6.144 6.144 7.68 11.264l0.512 1.024c1.024 3.584 2.048 7.168 2.048 11.264-0.512 4.608-2.048 9.216-3.584 12.8z"  horiz-adv-x="1024" />

    
    <glyph glyph-name="baopianjian" unicode="&#58917;" d="M136.704 811.008h723.968v-408.064H136.704zM497.152-20.48c18.432 0 33.792-14.848 33.792-33.792 0-18.432-14.848-33.792-33.792-33.792H197.12c-57.856 0-104.448 47.616-104.448 106.496V749.568c0 58.368 46.592 106.496 104.448 106.496h600.576c57.856 0 104.448-47.616 104.448-106.496v-192.512c0-18.432-14.848-33.792-33.792-33.792-18.432 0-33.792 14.848-33.792 33.792V749.568c0 21.504-16.896 38.912-36.864 38.912H197.12c-19.968 0-36.864-17.408-36.864-38.912v-731.648c0-21.504 16.896-38.912 36.864-38.912h300.032zM328.704 282.624c-18.432 0-33.792 14.848-33.792 33.792 0 18.432 14.848 33.792 33.792 33.792h263.68c18.432 0 33.792-14.848 33.792-33.792 0-18.432-14.848-33.792-33.792-33.792H328.704z m0 269.824c-18.432 0-33.792 14.848-33.792 33.792 0 18.432 14.848 33.792 33.792 33.792h337.408c18.432 0 33.792-14.848 33.792-33.792 0-18.432-14.848-33.792-33.792-33.792H328.704zM820.224 251.392h30.208c24.064 0 47.104-9.728 64.512-26.624 16.896-16.896 26.624-39.936 26.624-64.512v-91.136h-303.104v91.136c0 24.064 9.728 47.104 26.624 64.512 16.896 16.896 39.936 26.624 64.512 26.624h30.208V286.72c-41.984 14.848-67.072 57.344-59.392 101.376 7.68 43.52 45.568 75.776 89.6 75.776 44.544 0 82.432-31.744 89.6-75.776 7.68-43.52-17.408-86.528-59.392-101.376v-35.328z m-30.208 91.136c16.896 0 30.208 13.824 30.208 30.208 0 16.896-13.824 30.208-30.208 30.208-16.896 0-30.208-13.824-30.208-30.208-0.512-16.896 13.312-30.208 30.208-30.208z m-91.136-212.48H880.64v30.208c0 8.192-3.072 15.872-8.704 21.504s-13.312 8.704-21.504 8.704h-121.344c-8.192 0-15.872-3.072-21.504-8.704s-8.704-13.312-8.704-21.504v-30.208z m-60.416-121.344c0 16.896 13.824 30.208 30.208 30.208H911.36c16.896 0 30.208-13.824 30.208-30.208 0-16.896-13.824-30.208-30.208-30.208h-242.688c-16.896 0-30.208 13.312-30.208 30.208z"  horiz-adv-x="1024" />

    
    <glyph glyph-name="shensuanjian" unicode="&#58918;" d="M307.2 811.008h636.928v-397.824H307.2zM577.536 410.624H189.44c-8.704 8.704-40.448 42.496-38.912 89.088 1.536 57.344 51.712 111.616 123.904 124.928 100.864 25.6 202.24 51.2 303.104 76.288v-290.304zM818.688 486.4h-176.64c-13.312 0-25.088-7.168-31.744-18.432-6.656-11.264-6.656-25.088 0-36.864 6.656-11.264 18.432-18.432 31.744-18.432H819.2c13.312 0 25.088 7.168 31.744 18.432 6.656 11.264 6.656 25.6 0 36.864s-18.944 18.432-32.256 18.432z m36.864 116.224c0 19.968-16.384 35.84-36.352 36.352h-265.216c-19.968 0-36.352-16.384-36.352-36.352v-1.024c0-19.968 16.384-36.352 36.352-36.352H819.2c19.968 0 35.84 16.384 36.352 36.352v1.024z m48.128 263.68H334.848C280.576 866.816 236.032 824.32 234.496 770.048h-0.512v-31.744c0-13.312 7.168-25.088 18.432-31.744 11.264-6.656 25.088-6.656 36.352 0 11.264 6.656 18.432 18.432 18.432 31.744V768c1.024 14.336 13.312 25.6 27.648 25.088h569.344c14.336 0.512 26.624-10.752 27.648-25.088v-768c-1.024-14.336-13.312-25.6-27.648-25.088H334.848c-14.336-0.512-26.624 10.752-27.648 25.088v31.744c0.512 13.312-6.144 26.624-17.92 33.28-11.776 7.168-26.112 7.168-37.888 0-11.776-7.168-18.432-19.968-17.92-33.28v-31.744c0.512-54.784 45.568-98.816 100.864-98.304h569.344c54.784-0.512 99.84 43.52 100.864 98.304V768c-1.024 54.784-46.08 98.816-100.864 98.304zM307.2 608.768l327.168-325.12-59.904-60.928-61.44-61.952-327.168 325.12 121.344 122.88z m154.624-500.224c-13.312-14.336-13.312-36.864 0.512-50.688 14.848-14.336 37.376-14.336 51.2-1.024l223.744 226.304c13.824 14.336 13.824 36.864 0 51.2s-36.864 14.848-51.2 1.024L358.4 660.992c13.312 14.336 13.312 36.864-0.512 50.688-13.824 14.336-36.864 14.848-51.2 1.024L194.048 599.04 81.92 486.4c-13.312-14.336-13.312-36.864 0.512-50.688 14.848-14.336 37.376-14.336 51.2-0.512l138.24-137.216-240.128-245.76c-10.24-9.216-14.336-23.04-11.264-36.352 3.072-13.312 13.824-23.552 27.136-26.624 13.312-3.072 27.136 1.024 36.352 11.264l240.64 244.224 137.216-136.192z m0 0"  horiz-adv-x="1024" />

    
    <glyph glyph-name="beiananjian" unicode="&#58919;" d="M124.928 811.008h800.256V332.8H124.928zM901.12 875.008H124.928c-37.376 0-68.096-31.232-68.096-70.144v-841.728c0-38.4 30.72-70.144 68.096-70.144h773.632c37.376 0 68.096 31.232 68.096 70.144V804.864c0.512 38.912-28.16 70.144-65.536 70.144z m-2.048-848.896c0-32.768-26.112-59.392-57.856-59.392H182.784c-31.744 0-57.856 26.624-57.856 59.392V741.888c0 32.768 26.112 59.392 57.856 59.392h659.968c31.744 0 55.808-26.624 55.808-59.392v-715.776zM672.256 208.384H351.744c-18.944 0-33.792 15.36-33.792 34.816s15.36 34.816 33.792 34.816h320.512c18.944 0 33.792-15.36 33.792-34.816s-14.848-34.816-33.792-34.816z m76.8-163.84H274.944c-18.944 0-33.792 15.36-33.792 34.816s15.36 34.816 33.792 34.816h473.6c18.944 0 33.792-15.36 33.792-34.816 0.512-18.944-14.848-34.816-33.28-34.816z m-270.848-114.688M615.424 355.328c-5.632 0-11.776 1.536-16.896 4.096L512 404.992l-86.528-45.568c-12.288-6.656-27.136-5.632-38.4 2.56s-16.896 22.016-14.336 35.328l16.384 97.28-70.144 68.096c-9.728 9.728-13.312 24.064-9.216 37.376 4.096 13.312 15.36 22.528 29.184 24.576l96.768 13.824 43.52 87.552c6.144 12.288 18.432 20.48 32.768 20.48 13.824 0 26.624-7.68 32.768-20.48l43.52-87.552 96.768-14.336c13.824-2.048 25.088-11.264 29.184-24.576 4.096-13.312 1.024-27.648-9.216-37.376L634.88 494.08l16.384-96.256c2.56-13.824-3.072-27.136-14.336-35.328-6.656-4.608-13.824-7.168-21.504-7.168zM395.776 416.256z m116.224 56.32c5.632 0 11.776-1.536 16.896-4.096l50.176-26.112-9.728 55.808c-2.048 11.776 2.048 23.552 10.24 32.256l40.448 39.424-55.808 8.192c-11.776 1.536-22.016 9.216-27.136 19.968l-25.088 50.688-25.088-50.688c-5.12-10.752-15.36-17.92-27.136-19.968l-55.808-8.192 40.448-39.424c8.704-8.192 12.288-20.48 10.24-32.256l-9.728-55.808 50.176 26.112c5.12 2.56 11.264 4.096 16.896 4.096z"  horiz-adv-x="1024" />

    
    <glyph glyph-name="zibananjian" unicode="&#58920;" d="M344.064 843.264h370.176V696.32H344.064zM200.704 729.088h682.496v-525.312H200.704zM809.984 794.624h-46.08c-11.264 47.616-54.272 81.92-103.424 81.92H397.824c-50.688 0-92.16-34.304-103.424-81.92h-46.08c-62.464 0-113.152-50.688-113.152-115.2v-673.28c0-64 50.688-115.2 113.152-115.2h561.664c62.464 0 113.152 50.688 113.152 115.2V679.424c0 64-50.688 115.2-113.152 115.2z m-453.12-24.576c0 23.04 17.92 40.96 40.96 40.96H660.48c23.04 0 40.96-17.92 40.96-40.96v-16.384c0-23.04-17.92-40.96-40.96-40.96H397.824c-23.04 0-40.96 17.92-40.96 40.96v16.384z m500.736-763.904c0-28.16-21.504-49.152-47.616-49.152H248.32c-26.112 0-47.616 21.504-47.616 49.152V679.424c0 28.16 21.504 49.152 47.616 49.152h46.08c11.264-47.616 54.272-81.92 103.424-81.92H660.48c50.688 0 92.16 34.304 103.424 81.92h46.08c26.112 0 47.616-21.504 47.616-49.152v-673.28z m0 0M691.712 367.616H359.936c-17.92 0-31.232 14.848-31.232 32.768 0 17.92 14.848 32.768 31.232 32.768h331.776c17.92 0 31.232-14.848 31.232-32.768 0-17.92-13.312-32.768-31.232-32.768z m0-164.352H359.936c-17.92 0-31.232 14.848-31.232 32.768 0 17.92 14.848 32.768 31.232 32.768h331.776c17.92 0 31.232-14.848 31.232-32.768 0-17.92-13.312-32.768-31.232-32.768z m0 0"  horiz-adv-x="1024" />

    
    <glyph glyph-name="shensuxinjian" unicode="&#58921;" d="M60.416 811.008h709.632v-369.152H60.416zM425.984-29.184a34.304 34.304 0 0 0 0-68.608H119.296c-58.88 0-106.496 48.64-106.496 108.544V757.248c0 59.904 47.616 108.544 106.496 108.544h613.376c58.88 0 106.496-48.64 106.496-108.544v-196.096a34.304 34.304 0 0 0-68.608 0V757.248c0 22.016-16.896 39.936-37.888 39.936H119.296c-20.48 0-37.888-17.408-37.888-39.936V10.24c0-22.016 16.896-39.936 37.888-39.936h306.688zM735.744-29.184c114.176 0 206.848 92.672 206.848 206.848S849.92 384 735.744 384c-114.176 0-206.848-92.672-206.848-206.848s92.672-206.336 206.848-206.336z m0-69.12c-152.064 0-275.456 123.392-275.456 275.456s123.392 275.456 275.456 275.456c152.064 0 275.456-123.392 275.456-275.456s-123.392-275.456-275.456-275.456zM253.952 280.576a34.304 34.304 0 0 0 0 68.608H322.56a34.304 34.304 0 0 0 0-68.608H253.952z m0 275.456a34.304 34.304 0 0 0 0 68.608h344.576a34.304 34.304 0 0 0 0-68.608H253.952zM770.56 96.256l8.192 250.368h-89.6l8.192-250.368zM780.288 52.224c-2.56 6.656-6.656 10.752-9.728 14.336-4.096 4.608-10.24 8.192-16.384 10.24h-1.536c-4.608 1.536-9.728 3.072-16.896 3.072-7.68 0-13.312-1.536-18.432-3.584-5.632-2.048-11.776-5.632-15.872-9.728-4.096-3.584-8.192-8.192-10.24-14.848l-0.512-1.536c-1.536-4.608-3.072-9.728-3.072-15.36 0-6.656 1.536-10.752 2.56-14.336 0-0.512 0.512-1.536 1.024-2.56 2.048-6.656 6.656-10.752 10.24-14.336l1.536-1.024c1.024-0.512 2.048-1.536 3.072-2.048 3.584-2.56 6.656-5.12 11.776-6.656l1.024-0.512c4.608-1.536 9.728-3.072 16.896-3.072 7.68 0 13.312 1.536 18.432 3.584 5.632 2.048 11.776 5.632 15.872 9.728 4.096 3.584 8.192 8.192 10.24 14.848l0.512 1.536c1.536 4.608 3.072 9.728 3.072 14.848 0 6.656-2.048 12.288-3.584 17.408z"  horiz-adv-x="1024" />

    
    <glyph glyph-name="shensushixiang" unicode="&#58923;" d="M144.896 811.008h734.72v-434.688H144.896zM512-17.92c18.432 0 33.28-14.848 33.28-33.28s-14.848-33.28-33.28-33.28H214.016c-57.344 0-103.424 47.616-103.424 105.472V747.008c0 58.368 46.08 105.472 103.424 105.472h596.48c57.344 0 103.424-47.616 103.424-105.472v-190.976c0-18.432-14.848-33.28-33.28-33.28s-33.28 14.848-33.28 33.28V747.008c0 21.504-16.384 38.4-36.864 38.4H214.016c-19.968 0-36.864-16.896-36.864-38.4v-726.016c0-21.504 16.384-38.4 36.864-38.4H512zM512-17.92c-18.432 0-33.28-14.848-33.28-33.28s14.848-33.28 33.28-33.28h297.984c57.344 0 103.424 47.616 103.424 105.472V747.008c0 58.368-46.08 105.472-103.424 105.472H214.016c-57.344 0-103.424-47.616-103.424-105.472v-190.976c0-18.432 14.848-33.28 33.28-33.28s33.28 14.848 33.28 33.28V747.008c0 21.504 16.384 38.4 36.864 38.4h596.48c19.968 0 36.864-16.896 36.864-38.4v-726.016c0-21.504-16.384-38.4-36.864-38.4H512zM515.072 309.76c-18.432 0-33.28 14.848-33.28 33.28s14.848 33.28 33.28 33.28h164.352c18.432 0 33.28-14.848 33.28-33.28s-14.848-33.28-33.28-33.28h-164.352zM515.072 128.512c-18.432 0-33.28 14.848-33.28 33.28s14.848 33.28 33.28 33.28h164.352c18.432 0 33.28-14.848 33.28-33.28s-14.848-33.28-33.28-33.28h-164.352zM515.072 490.496c-18.432 0-33.28 14.848-33.28 33.28s14.848 33.28 33.28 33.28h164.352c18.432 0 33.28-14.848 33.28-33.28s-14.848-33.28-33.28-33.28h-164.352zM631.296 773.632v-59.904H392.704V773.632h238.592M691.2 833.536H332.8v-119.296c0-32.768 26.624-59.904 59.904-59.904h239.104c32.768 0 59.904 26.624 59.904 59.904V833.536zM403.456 588.288c-7.68 5.632-19.456 4.096-25.088-3.072L315.392 501.76 286.72 534.016c-6.144 7.168-17.92 8.192-25.6 2.048-3.584-3.072-6.144-7.168-6.656-12.288-0.512-4.608 1.024-9.216 4.608-12.8l43.008-48.128c3.584-4.096 8.704-6.144 13.824-6.144h0.512c5.632 0 10.752 2.56 13.824 6.656l76.288 100.352c3.072 3.584 4.096 8.192 3.584 13.312-0.512 4.608-3.072 8.704-6.656 11.264zM381.44 408.064h-97.28c-9.216 0-16.384-7.168-16.384-16.384v-97.28c0-9.216 7.168-16.384 16.384-16.384h97.28c9.216 0 16.384 7.168 16.384 16.384v97.28c0 9.216-7.68 16.384-16.384 16.384z m-22.528-84.48c0-3.584-3.072-6.656-6.656-6.656h-39.424c-3.584 0-6.656 3.072-6.656 6.656v39.424c0 3.584 3.072 6.656 6.656 6.656h39.424c3.584 0 6.656-3.072 6.656-6.656v-39.424zM381.44 235.008h-97.28c-9.216 0-16.384-7.168-16.384-16.384v-97.28c0-9.216 7.168-16.384 16.384-16.384h97.28c9.216 0 16.384 7.168 16.384 16.384v97.28c0 9.216-7.68 16.384-16.384 16.384z m-22.528-84.48c0-3.584-3.072-6.656-6.656-6.656h-39.424c-3.584 0-6.656 3.072-6.656 6.656V189.44c0 3.584 3.072 6.656 6.656 6.656h39.424c3.584 0 6.656-3.072 6.656-6.656v-38.912z"  horiz-adv-x="1024" />

    
    <glyph glyph-name="weijianjian" unicode="&#58930;" d="M577.024-10.24H150.016c-17.92 0-32.768 14.848-32.768 32.768V746.496c0 17.92 14.848 32.768 32.768 32.768h559.104c17.92 0 32.768-14.848 32.768-32.768 0-17.92 14.848-32.768 32.768-32.768 17.92 0 32.768 14.848 32.768 32.768 0 54.272-44.032 98.816-98.816 98.816H150.016C95.744 845.312 51.2 801.28 51.2 746.496v-723.456c0-54.272 44.032-98.816 98.816-98.816h426.496c17.92 0 32.768 14.848 32.768 32.768 0.512 17.92-14.336 32.768-32.256 32.768zM906.752 137.728c0-17.92-14.848-32.768-32.768-32.768h-328.704c-17.92 0-32.768 14.848-32.768 32.768v32.768c0 17.92 14.848 32.768 32.768 32.768h328.704c17.92 0 32.768-14.848 32.768-32.768v-32.768z m-260.608 232.96c-19.968 57.344-35.328 108.032-35.328 112.64 0 54.272 44.032 98.816 98.816 98.816 54.272 0 98.816-44.032 98.816-98.816 0-6.656-53.76-162.816-72.192-213.504h-52.736c-8.704 20.48-23.552 60.416-37.376 100.864z m227.328-101.376h-68.096c25.088 69.632 68.096 197.632 68.096 213.504 0 90.624-73.728 164.352-164.352 164.352S544.768 573.44 544.768 482.816c0-20.48 40.96-143.36 67.584-213.504h-67.584c-54.272 0-98.816-44.032-98.816-98.816v-32.768c0-54.272 44.032-98.816 98.816-98.816h328.704c54.272 0 98.816 44.032 98.816 98.816v32.768c0 54.784-44.032 98.816-98.816 98.816zM216.064 220.16c-17.92 0-32.768-14.848-32.768-32.768 0-17.92 14.848-32.768 32.768-32.768h131.584c17.92 0 32.768 14.848 32.768 32.768 0 17.92-14.848 32.768-32.768 32.768H216.064z m263.168 197.12c0 17.92-14.848 32.768-32.768 32.768h-230.4c-17.92 0-32.768-14.848-32.768-32.768 0-17.92 14.848-32.768 32.768-32.768h230.4c17.92 0 32.768 14.848 32.768 32.768z m32.768 197.632c0 17.92-14.848 32.768-32.768 32.768H216.064c-17.92 0-32.768-14.848-32.768-32.768 0-17.92 14.848-32.768 32.768-32.768h263.168c17.92-0.512 32.768 14.336 32.768 32.768z"  horiz-adv-x="1024" />

    
    <glyph glyph-name="anjianbaobei" unicode="&#58931;" d="M832 412.672l-30.72 31.232-156.672 156.672c-5.12 5.12-5.12 12.8 0 17.92l39.424 39.424c52.224 52.224 52.224 136.704 0 188.928s-136.704 52.224-188.928 0L204.288 554.496c-4.096-3.584-8.192-6.656-12.288-10.752-52.224-52.224-52.224-136.704 0-188.928l187.392-187.392c5.12-5.12 5.12-13.312 0-17.92l-40.448-39.424c-38.4-38.4-49.664-95.744-29.184-145.408 25.6-61.952 94.72-97.28 163.328-76.288 22.528 6.656 41.984 20.48 58.368 36.864l298.496 298.496c25.088 25.088 38.912 58.88 38.912 94.208 0 35.328-13.824 69.12-38.912 94.208l2.048 0.512z m-290.816 388.096c27.648 18.944 65.024 15.872 89.088-8.192 24.064-24.064 27.136-61.44 7.68-89.088l-19.968-18.944L430.08 496.128c-6.144-6.144-16.896-4.096-20.48 4.096-13.312 32.768-38.912 58.368-71.68 72.192-8.192 3.584-10.24 14.336-4.096 20.48l207.36 207.872zM483.328-32.768c-15.872-22.528-44.032-33.792-71.168-28.16-27.136 5.632-48.64 26.624-54.272 53.76-5.632 27.136 5.12 55.296 28.16 71.168l39.424 39.424c5.12 5.12 12.8 5.12 17.92 0l39.424-39.424c26.112-27.136 26.112-69.632 0.512-96.768z m302.08 302.08L578.56 62.976c-6.144-6.144-16.896-4.096-20.48 4.096-6.656 16.384-16.384 31.232-28.672 43.52l-31.232 30.72-260.096 259.584c-20.48 19.968-26.624 50.176-15.872 76.288s36.352 43.52 64.512 43.52 53.76-17.408 64.512-43.52c9.216-23.04 5.632-49.152-9.216-68.608-3.584-5.12-2.56-12.288 1.536-16.384l28.672-28.672c5.12-5.12 12.8-5.12 17.92 0l191.488 191.488c5.12 5.12 12.8 5.12 17.92 0l155.136-157.184 30.72-30.72c26.624-27.648 26.624-70.656 0-97.792z m-234.496 213.504l-126.464-126.464c-12.8-12.8-12.8-33.792 0-46.592s33.792-12.8 46.592 0l126.464 126.464c12.8 12.8 12.8 33.792 0 46.592s-33.792 12.8-46.592 0z m69.632-69.632L494.08 286.72c-12.8-12.8-12.8-33.792 0-46.592s33.792-12.8 46.592 0l126.464 126.464c12.8 12.8 12.8 33.792 0 46.592s-33.792 12.8-46.592 0z m-57.856-241.664c12.8-12.8 33.792-12.8 46.592 0l125.44 126.976c12.8 12.8 12.8 33.792 0 46.592s-33.792 12.8-46.592 0l-125.44-126.976c-12.8-13.312-12.8-33.792 0-46.592z m-23.04 23.04"  horiz-adv-x="1024" />

    
    <glyph glyph-name="anjiandengji" unicode="&#58932;" d="M707.584 445.44l-61.44 61.44c-10.24 10.24-24.064 15.872-38.4 15.872s-28.16-5.632-38.4-15.872l-158.208-158.208-110.592-110.592v-105.472c0-17.92 14.848-32.768 32.768-32.768h105.472l110.592 110.592 158.208 158.208c10.24 10.24 15.872 24.064 15.872 38.4s-5.632 28.16-15.872 38.4z m-56.832-49.152l-244.736-243.2H353.792v52.736l244.224 243.2c4.608 4.608 10.752 7.168 17.408 7.168 6.656 0 12.8-2.56 17.408-7.168l17.408-17.408c10.24-9.728 10.24-25.6 0.512-35.328zM814.08 788.48h-70.656c-11.264 47.104-53.248 80.896-101.888 80.896H382.464C332.288 869.376 291.84 835.072 280.576 788.48H209.92c-61.44 0-111.616-50.176-111.616-113.152v-663.04c0-62.976 50.176-113.152 111.616-113.152h604.16c61.44 0 111.616 50.176 111.616 113.152V675.328C925.696 738.304 875.52 788.48 814.08 788.48z m-472.064-24.576c0 22.528 17.92 40.448 40.448 40.448h258.56c22.528 0 40.448-17.92 40.448-40.448V747.52c0-22.528-17.92-40.448-40.448-40.448H382.464c-22.528 0-40.448 17.92-40.448 40.448v16.384z m518.656-752.128c0-27.648-20.992-48.64-47.104-48.64H209.92c-26.112 0-47.104 20.992-47.104 48.64V675.328c0 27.648 20.992 48.64 47.104 48.64h70.656c11.264-47.104 53.248-80.896 101.888-80.896h258.56c50.176 0 90.624 33.792 101.888 80.896H814.08c26.112 0 47.104-20.992 47.104-48.64v-663.552z m0 0"  horiz-adv-x="1024" />

    
    <glyph glyph-name="anjianzhihang" unicode="&#58933;" d="M534.528 657.408l193.024-193.024-276.48-276.48-193.024 193.024 276.48 276.48m0 88.064l-364.544-364.544 281.088-281.088 364.544 364.544-281.088 281.088z m0 0M654.848 303.616l218.112-218.112c10.752-10.752 10.24-29.184-2.048-40.96-8.192-8.192-17.408-9.728-22.528-9.728-5.12 0-12.8 1.536-18.944 7.68l-218.112 218.112 43.52 43.008m0 88.576L523.776 261.12l262.144-262.144c17.408-17.408 39.936-26.112 62.976-26.112 24.064 0 48.128 9.216 66.56 27.648 36.352 36.352 37.376 94.208 2.048 129.536l-262.656 262.144z m-47.616 379.904c10.752 0 20.992-4.096 28.672-11.776l194.56-194.56c15.872-15.872 15.872-41.984 0-57.856-7.68-7.68-17.92-11.776-28.672-11.776-10.752 0-20.992 4.096-28.672 11.776l-194.56 194.56c-15.872 15.872-15.872 41.984 0 57.856 7.68 7.68 17.92 11.776 28.672 11.776m0 62.464c-26.112 0-52.736-10.24-72.704-30.208-40.448-40.448-40.448-105.472 0-145.92l194.56-194.56c19.968-19.968 46.592-30.208 72.704-30.208s52.736 10.24 72.704 30.208c40.448 40.448 40.448 105.472 0 145.92l-194.56 194.56c-19.968 19.968-46.08 30.208-72.704 30.208zM184.32 349.184c10.752 0 20.992-4.096 28.672-11.776l194.56-194.56c15.872-15.872 15.872-41.984 0-57.856-7.68-7.68-17.92-11.776-28.672-11.776-10.752 0-20.992 4.096-28.672 11.776l-194.56 194.56c-15.872 15.872-15.872 41.984 0 57.856 7.168 7.68 17.408 11.776 28.672 11.776m0 62.464c-26.112 0-52.736-10.24-72.704-30.208-40.448-40.448-40.448-105.472 0-145.92l194.56-194.56c19.968-19.968 46.592-30.208 72.704-30.208s52.736 10.24 72.704 30.208c40.448 40.448 40.448 105.472 0 145.92l-194.56 194.56c-19.968 19.968-46.592 30.208-72.704 30.208z m0 0"  horiz-adv-x="1024" />

    
    <glyph glyph-name="anjianshouli" unicode="&#58934;" d="M543.232 346.112h31.232c24.576 0 48.64-9.728 66.048-27.136 17.408-17.408 27.136-41.472 27.136-66.048v-93.184H356.352v93.184c0 24.576 9.728 48.64 27.136 66.048 17.408 17.408 41.472 27.136 66.048 27.136h31.232v36.352C437.76 397.824 412.16 441.344 419.84 486.4s46.592 77.824 92.16 77.824 84.48-32.768 92.16-77.824c7.68-45.056-17.92-88.576-60.928-103.936v-36.352zM512 439.296c17.408 0 31.232 13.824 31.232 31.232 0 17.408-13.824 31.232-31.232 31.232-17.408 0-31.232-13.824-31.232-31.232 0-17.408 13.824-31.232 31.232-31.232z m-93.184-217.6h186.88v31.232c0 8.192-3.072 16.384-9.216 22.016-5.632 5.632-13.824 9.216-22.016 9.216H449.536c-8.192 0-16.384-3.072-22.016-9.216-5.632-5.632-9.216-13.824-9.216-22.016v-31.232z m-62.464-124.928c0 17.408 13.824 31.232 31.232 31.232h248.832c17.408 0 31.232-13.824 31.232-31.232 0-17.408-13.824-31.232-31.232-31.232H387.584c-17.408 0.512-31.232 14.336-31.232 31.232zM811.52 785.408h-70.144c-11.264 46.592-52.736 80.384-101.376 80.384H383.488c-49.664 0-90.112-33.792-101.376-80.384H212.48c-60.928 0-110.592-49.664-110.592-112.64v-658.432c0-62.464 49.664-112.64 110.592-112.64h599.552c60.928 0 110.592 49.664 110.592 112.64V673.28c0 62.464-49.664 112.128-111.104 112.128z m-467.968-24.064c0 22.528 17.408 39.936 39.936 39.936h257.024c22.528 0 39.936-17.92 39.936-39.936v-15.872c0-22.528-17.408-39.936-39.936-39.936H383.488c-22.528 0-39.936 17.92-39.936 39.936v15.872z m514.56-746.496c0-27.136-20.992-48.128-46.592-48.128h-599.04c-25.6 0-46.592 20.992-46.592 48.128V673.28c0 27.136 20.992 48.128 46.592 48.128h70.144c11.264-46.592 52.736-80.384 101.376-80.384h257.024c49.664 0 90.112 33.792 101.376 80.384h70.144c25.6 0 46.592-20.992 46.592-48.128v-658.432z m0 0"  horiz-adv-x="1024" />

    
    <glyph glyph-name="anjianshenhe" unicode="&#58936;" d="M942.592 158.208v-61.44c0-36.864-24.576-61.44-61.44-61.44H142.848c-36.864 0-61.44 24.576-61.44 61.44v61.44h861.184m61.44 61.44H19.456v-122.88c0-67.584 55.296-122.88 122.88-122.88H880.64c67.584 0 122.88 55.296 122.88 122.88v122.88z m0 0M819.712 773.632c36.864 0 61.44-24.576 61.44-61.44v-492.544H142.848V711.68c0 36.864 24.576 61.44 61.44 61.44h615.424m0 61.952H204.288c-67.584 0-122.88-55.296-122.88-122.88v-553.984h861.696V711.68c-0.512 68.096-55.808 123.392-123.392 123.392z m0 0M659.968 706.56h-122.88v15.36c0 13.824-10.752 25.088-24.576 25.088h-1.024c-13.824 0-24.576-10.752-24.576-25.088v-15.36h-122.88c-42.496 0-68.608-35.84-68.608-69.12v-6.656c0-13.824 10.752-24.576 24.576-24.576 13.824 0 24.576 10.752 24.576 24.576v6.656c0 10.24 8.704 18.432 18.944 18.432h295.936c10.24 0 18.432-8.192 18.432-18.432v-6.656c0-13.824 11.264-24.576 25.088-24.576s24.576 10.752 24.576 24.576v6.656c1.024 37.888-30.208 69.12-67.584 69.12zM629.76 602.112h-92.672v8.704c0 13.312-11.776 24.576-24.576 24.576h-1.024c-13.312 0-24.576-11.776-24.576-24.576v-8.704H393.728c-38.4 0-69.632-31.232-69.632-69.632v-131.584c0-37.888 31.744-69.632 69.632-69.632H486.4v-60.416c0-13.824 10.752-25.088 24.576-25.088h1.024c13.824 0 24.576 10.752 24.576 25.088v60.416H629.76c37.888 0 69.12 31.232 69.12 69.632V532.48c0 38.4-30.72 69.632-69.12 69.632z m18.944-159.232v-41.984c0-10.752-7.68-18.432-18.432-18.432H537.6V442.88h111.104z m0 89.6v-39.424H537.6V551.424h92.16c10.752 0 18.944-8.192 18.944-18.944z m-273.408-38.912V532.48c0 11.776 7.168 18.432 18.432 18.432H486.4v-57.856H375.296zM486.4 442.88v-60.416H393.728c-11.776 0-18.432 6.656-18.432 18.432v41.984H486.4z"  horiz-adv-x="1024" />

    
    <glyph glyph-name="huifangjiaoyu" unicode="&#58937;" d="M879.616-101.376h-645.12c-69.12 0-125.952 56.832-125.952 125.952V743.424c0 69.12 56.832 125.952 125.952 125.952h645.12c19.968 0 35.84-16.384 35.84-35.84v-898.56c0-19.968-15.872-36.352-35.84-36.352zM234.496 797.184c-29.696 0-53.76-24.064-53.76-53.76v-718.848c0-29.696 24.064-53.76 53.76-53.76h609.28V797.184h-609.28z m0 0M593.92 258.048c-9.216 0-18.944 3.584-25.088 10.752l-109.568 108.544-109.568-108.544c-9.728-9.728-26.112-13.312-39.424-8.192-12.8 5.632-21.504 18.944-21.504 33.28V833.536c0 19.968 16.384 35.84 35.84 35.84H593.92c19.968 0 35.84-16.384 35.84-35.84v-539.136c0-19.968-16.384-35.84-35.84-36.352zM458.752 464.896c9.216 0 17.92-3.584 25.088-10.752l73.728-73.728V797.184H359.936v-416.256l73.728 73.728c7.168 6.656 16.384 10.24 25.088 10.24z m0 0M879.616-88.576h-645.12c-69.12 0-125.952 56.832-125.952 125.952 0 69.12 56.832 125.952 125.952 125.952h645.12c19.968 0 35.84-16.384 35.84-35.84v-179.712c0-20.48-15.872-36.352-35.84-36.352z m-645.12 179.712c-29.696 0-53.76-24.064-53.76-53.76s24.064-53.76 53.76-53.76h609.28v108.032h-609.28z m0 0"  horiz-adv-x="1024" />

    
    <glyph glyph-name="yisongqianshou" unicode="&#58938;" d="M438.784-13.824c18.432 0 33.28-14.848 33.28-33.28s-14.848-33.28-33.28-33.28H143.872c-56.832 0-102.4 47.104-102.4 104.448V743.424c0 57.344 45.568 104.448 102.4 104.448h589.824c56.832 0 102.4-47.104 102.4-104.448v-188.928c0-18.432-14.848-33.28-33.28-33.28s-33.28 14.848-33.28 33.28V743.424c0 21.504-16.384 38.4-36.352 38.4H143.872c-19.968 0-36.352-16.896-36.352-38.4v-718.848c0-21.504 16.384-38.4 36.352-38.4h294.912zM737.28-13.824c109.568 0 198.656 89.088 198.656 198.656S846.848 384 737.28 384s-198.656-89.088-198.656-198.656 88.576-199.168 198.656-199.168z m0-66.048c-146.432 0-265.216 118.784-265.216 265.216S590.848 450.56 737.28 450.56c146.432 0 265.216-118.784 265.216-265.216s-118.784-265.216-265.216-265.216zM273.408 337.408c-18.432 0-33.28 14.848-33.28 33.28s14.848 33.28 33.28 33.28h208.896c18.432 0 33.28-14.848 33.28-33.28s-14.848-33.28-33.28-33.28H273.408zM273.408 109.056c-18.432 0-33.28 14.848-33.28 33.28s14.848 33.28 33.28 33.28h132.608c18.432 0 33.28-14.848 33.28-33.28s-14.848-33.28-33.28-33.28H273.408zM279.04 549.888c-18.432 0-33.28 14.848-33.28 33.28s14.848 33.28 33.28 33.28h321.024c18.432 0 33.28-14.848 33.28-33.28s-14.848-33.28-33.28-33.28H279.04zM852.992 274.944c-12.8 9.216-31.744 6.656-41.472-5.632l-102.912-136.704-47.104 52.736c-10.24 11.264-29.696 12.8-41.472 3.584-6.144-5.12-10.24-12.288-10.752-19.968-0.512-7.68 2.048-15.36 7.168-21.504l70.656-79.36c5.632-6.144 13.824-9.728 22.528-9.728h0.512c9.216 0 17.408 4.096 23.04 11.264l124.928 164.864c5.12 6.144 7.168 13.824 6.144 21.504-0.512 7.168-4.608 14.336-11.264 18.944z"  horiz-adv-x="1024" />

    
    <glyph glyph-name="yijian" unicode="&#58939;" d="M966.656 354.304l-60.928 60.928c-10.24 10.24-24.064 15.872-38.4 15.872s-28.16-5.632-38.4-15.872l-157.184-157.184-110.08-109.568v-104.96c0-17.92 14.848-32.768 32.768-32.768h104.96l110.08 110.08 157.184 157.184c10.24 10.24 15.872 24.064 15.872 38.4s-5.632 28.16-15.872 37.888z m-56.32-48.64l-243.2-241.664h-52.224v52.224l243.2 241.664c4.608 4.608 10.752 7.168 17.408 7.168s12.8-2.56 17.408-7.168l17.408-17.408c9.728-9.728 9.728-25.088 0-34.816zM457.216-31.744c18.944 0 34.816-15.36 34.816-34.816 0-18.944-15.36-34.816-34.816-34.816H148.48c-59.392 0-107.52 49.152-107.52 109.568V759.808C40.96 820.224 88.576 869.376 148.48 869.376h617.472c59.392 0 107.52-49.152 107.52-109.568v-197.632c0-18.944-15.36-34.816-34.816-34.816-18.944 0-34.816 15.36-34.816 34.816V759.808c0 22.528-17.408 39.936-37.888 39.936H148.48c-20.48 0-37.888-17.92-37.888-39.936v-752.128c0-22.528 17.408-39.936 37.888-39.936h308.736zM284.16 280.064c-18.944 0-34.816 15.36-34.816 34.816 0 18.944 15.36 34.816 34.816 34.816h119.808c18.944 0 34.816-15.36 34.816-34.816 0-18.944-15.36-34.816-34.816-34.816H284.16z m0 277.504c-18.944 0-34.816 15.36-34.816 34.816 0 18.944 15.36 34.816 34.816 34.816h346.624c18.944 0 34.816-15.36 34.816-34.816 0-18.944-15.36-34.816-34.816-34.816H284.16z"  horiz-adv-x="1024" />

    
    <glyph glyph-name="bencishenyi" unicode="&#58940;" d="M833.024 790.016H762.88c-11.264 46.592-53.248 80.896-101.888 80.896H402.944c-50.176 0-90.112-33.792-101.888-80.896H230.912c-61.44 0-111.104-50.176-111.104-113.152V15.36c0-62.976 50.176-113.152 111.104-113.152h602.624c61.44 0 111.104 50.176 111.104 113.152V676.864c0 62.976-50.176 113.152-111.616 113.152z m-470.528-24.064c0 22.528 17.92 40.448 40.448 40.448h258.048c22.528 0 40.448-17.92 40.448-40.448v-16.384c0-22.528-17.92-40.448-40.448-40.448H402.944c-22.528 0-40.448 17.92-40.448 40.448v16.384zM880.128 15.36c0-27.648-20.992-48.64-46.592-48.64H230.912c-25.6 0-46.592 20.992-46.592 48.64V676.864c0 27.648 20.992 48.64 46.592 48.64h70.656c11.264-46.592 53.248-80.896 101.888-80.896h258.048c50.176 0 90.112 33.792 101.888 80.896h70.656c25.6 0 46.592-20.992 46.592-48.64V15.36z m0 0M686.08 521.216h-133.632v22.016c0 11.264-8.704 19.968-19.968 19.968h-1.024c-11.264 0-19.968-8.704-19.968-19.968v-22.016H377.856c-40.448 0-65.536-34.304-65.536-66.048v-7.168c0-11.264 8.704-19.968 19.968-19.968s19.968 8.704 19.968 19.968v7.168c0 13.824 11.776 25.088 25.6 25.088H686.08c13.824 0 25.088-11.264 25.088-25.088v-7.168c0-10.752 8.704-19.968 19.968-19.968h0.512c11.264 0 19.968 8.704 19.968 19.968v7.168c0 36.352-29.184 66.048-65.536 66.048z m-31.232-108.544h-102.4v14.848c0 10.752-9.216 19.968-19.968 19.968h-1.024c-10.752 0-19.968-9.216-19.968-19.968v-14.848h-102.4c-36.864 0-66.56-29.696-66.56-66.56v-137.216c0-36.352 30.72-66.56 66.56-66.56h102.4v-69.12c0-11.264 8.704-19.968 19.968-19.968h1.024c11.264 0 19.968 8.704 19.968 19.968v69.12h102.4c36.352 0 66.048 29.696 66.048 66.56v137.216c0 36.864-29.696 66.56-66.048 66.56z m-143.36-228.864h-102.4c-15.36 0-25.088 9.728-25.088 25.088v49.664h128v-74.752z m0 115.712H384v47.104c0 15.36 9.728 25.088 25.088 25.088h102.4v-72.192z m168.448-90.624c0-14.848-10.752-25.088-25.088-25.088h-102.4v74.752h128v-49.664z m0 90.624h-128v72.192h102.4c14.336 0 25.088-10.752 25.088-25.088v-47.104z m0 0"  horiz-adv-x="1024" />

    
    <glyph glyph-name="rili" unicode="&#58941;" d="M825.856 697.856h-71.68v33.792c-0.512 23.04-19.968 40.96-42.496 40.448-22.016-0.512-39.936-18.432-40.448-40.448v-33.792H353.28v33.792c-0.512 22.528-18.944 40.448-41.472 40.448-22.528 0-40.96-17.92-41.472-40.448v-33.792h-71.68c-39.424 0.512-71.168-31.232-71.68-70.144V71.68c0.512-39.424 32.256-70.656 71.68-70.144h627.712c39.424-0.512 71.168 31.232 71.68 70.144V627.712c-1.024 38.912-32.768 70.656-72.192 70.144z m9.216-626.176c0-5.12-4.096-9.216-9.216-9.216H198.144c-5.12 0-9.216 4.096-9.216 9.216V512.512h646.656V71.68z m-558.08 253.44h89.088c11.264 0 20.992 9.216 20.992 20.48V402.944c0 5.632-2.048 10.752-6.144 14.336-4.096 3.584-9.216 6.144-14.848 5.632H276.992c-11.264 0-20.48-9.216-20.992-20.48v-57.856c0-5.632 2.048-10.752 6.144-14.336 4.096-3.072 9.216-5.12 14.848-5.12z m190.464 0h89.088c11.264 0 20.48 9.216 20.48 20.48V402.944c0 11.264-9.216 20.48-20.48 20.48H467.456c-11.264 0-20.48-9.216-20.48-20.48v-57.856c0-5.632 2.048-10.752 6.144-14.336 3.584-3.584 8.704-5.632 14.336-5.632z m190.464 0h89.088c11.264 0 20.48 9.216 20.48 20.48V402.944c0 11.264-9.216 20.48-20.48 20.48h-89.088c-11.264 0-20.48-9.216-20.48-20.48v-57.856c0-5.632 2.048-10.752 6.144-14.336 3.584-3.584 8.704-5.632 14.336-5.632z m-380.928-169.472h89.088c11.264 0 20.48 9.216 20.992 20.48v57.856c0 5.632-2.048 10.752-6.144 14.336-4.096 3.584-9.216 6.144-14.848 6.144H276.992c-11.264 0-20.992-9.216-20.992-20.48v-57.856c0-5.632 2.048-10.752 6.144-14.336 4.096-4.096 9.216-6.144 14.848-6.144z m190.464 0h89.088c11.264 0 20.48 9.216 20.48 20.48v57.856c0 11.264-9.216 20.48-20.48 20.48H467.456c-11.264 0-20.48-9.216-20.48-20.48v-57.856c0-11.776 9.216-20.992 20.48-20.48z m190.464 0h89.088c11.264 0 20.48 9.216 20.48 20.48v57.856c0 11.264-9.216 20.48-20.48 20.48h-89.088c-11.264 0-20.48-9.216-20.48-20.48v-57.856c-0.512-11.776 8.704-20.992 20.48-20.48z m0 0"  horiz-adv-x="1024" />

    
    <glyph glyph-name="baopianjiandengji" unicode="&#58942;" d="M141.824 13.312h740.864c34.304 0 56.32 27.136 49.664 59.904l-66.56 312.32c-6.656 33.28-39.936 59.904-74.24 59.904h-136.704c-23.04 0-37.888 24.576-27.136 45.568 38.912 72.704 70.144 150.016 70.144 202.24 0 102.4-82.944 185.344-185.344 185.344-102.4 0-185.344-82.944-185.344-185.344 0-51.2 31.232-129.536 70.144-202.24 10.752-20.48-3.584-45.056-27.136-45.056H233.984c-34.304 0-67.584-27.136-74.24-59.904l-66.56-312.32c-7.68-33.28 14.336-60.416 48.64-60.416z m-31.744-61.44h803.84c16.896 0 30.72-13.824 30.72-30.72s-13.824-30.72-30.72-30.72h-803.84c-16.896 0-30.72 13.824-30.72 30.72s13.824 30.72 30.72 30.72z m-30.72 0"  horiz-adv-x="1024" />

    
    <glyph glyph-name="qingshianjiandengji" unicode="&#58944;" d="M819.712 430.592c0-11.776-10.752-20.48-22.528-17.92-22.528 5.632-46.592 9.216-71.168 9.216-39.936 0-77.824-8.192-112.128-23.04-2.048-1.024-4.608-1.536-7.168-1.536H211.968c-10.24 0-18.432-8.192-18.432-18.432v-36.352c0-10.24 8.192-18.432 18.432-18.432H476.16c14.848 0 23.04-16.384 14.848-28.672-11.264-16.896-20.992-34.816-28.16-54.272-2.56-6.656-9.216-11.776-16.384-11.776H211.968c-10.24 0-18.432-8.192-18.432-18.432v-36.352c0-10.24 8.192-18.432 18.432-18.432H424.96c10.24 0 18.432-8.192 18.432-18.432 0-47.616 11.776-92.16 32.256-131.584 6.144-12.288-2.048-26.624-15.872-26.624H87.04c-10.24 0-18.432 8.192-18.432 18.432v844.8c0 10.24 8.192 18.432 18.432 18.432h714.24c10.24 0 18.432-8.192 18.432-18.432v-412.16z m-616.448 235.52V629.76c0-10.24 8.192-18.432 18.432-18.432h204.288c10.24 0 18.432 8.192 18.432 18.432v36.352c0 10.24-8.192 18.432-18.432 18.432H221.696c-10.24-0.512-18.432-8.704-18.432-18.432z m0 17.92M724.48 359.936c-125.44 0-226.816-101.376-226.816-226.816s101.376-226.816 226.816-226.816c125.44 0 226.816 101.376 226.816 226.816s-101.888 226.816-226.816 226.816z m106.496-172.544l-110.08-144.896c-4.608-6.144-12.288-9.728-19.968-9.728h-0.512c-7.68 0-14.848 3.072-19.968 8.704l-61.952 69.632c-4.608 5.12-6.656 11.776-6.144 18.944 0.512 7.168 4.096 13.312 9.216 17.408 10.752 8.704 27.648 7.168 36.864-3.072l41.472-46.08 90.112 120.32c8.704 10.752 25.088 12.8 36.352 4.608 5.632-4.096 9.216-10.24 10.24-16.896 0.512-6.656-1.024-13.312-5.632-18.944z"  horiz-adv-x="1024" />

    
    <glyph glyph-name="shensushixiangdengji" unicode="&#58945;" d="M839.168 426.496c0-12.288-11.776-21.504-23.552-18.432-23.552 6.144-48.64 9.216-74.752 9.216-41.984 0-81.408-8.704-117.76-24.064-2.56-1.024-4.608-1.536-7.168-1.536h-414.72c-10.752 0-18.944-8.704-18.944-18.944v-37.888c0-10.752 8.704-18.944 18.944-18.944h276.992c15.36 0 24.064-17.408 15.872-30.208-11.776-17.92-22.016-36.864-29.696-56.832-3.072-7.168-9.728-12.288-17.408-12.288h-245.76c-10.752 0-18.944-8.704-18.944-18.944v-37.888c0-10.752 8.704-18.944 18.944-18.944H424.96c10.752 0 18.944-8.704 18.944-19.456 0-49.664 12.288-96.768 33.792-138.24 6.656-12.8-2.56-28.16-16.896-28.16H70.144c-10.752 0-18.944 8.704-18.944 18.944V859.136c0 10.752 8.704 18.944 18.944 18.944h749.568c10.752 0 18.944-8.704 18.944-18.944v-432.64zM192.512 673.792v-37.888c0-10.752 8.704-18.944 18.944-18.944h214.528c10.752 0 18.944 8.704 18.944 18.944v37.888c0 10.752-8.704 18.944-18.944 18.944H211.456c-10.752 0-18.944-8.704-18.944-18.944z m0 18.944M740.864 352.256c132.608 0 239.104-111.616 230.4-245.76-7.168-115.2-100.864-208.896-216.064-216.064-134.144-8.192-245.76 98.304-245.76 230.4 0.512 128 103.936 231.424 231.424 231.424z m-2.048-264.704V15.36l140.288 120.32-140.288 120.32v-77.824c-55.808-8.704-140.288-49.664-140.288-134.144 34.304 21.504 124.928 41.984 140.288 43.52z m0 0"  horiz-adv-x="1024" />

    
    <glyph glyph-name="shensuxinjiandengji" unicode="&#58946;" d="M232.448 769.536h569.856V831.488c0 16.384-13.312 29.696-29.696 29.696H140.8c-16.384 0-29.696-13.312-29.696-29.696v-782.848c0-16.384 13.312-29.696 29.696-29.696h61.952V739.84c0 16.384 13.312 29.696 29.696 29.696z m0 0M883.2 749.056c16.384 0 29.696-13.312 29.696-29.696v-782.848c0-16.384-13.312-29.696-29.696-29.696H251.904c-7.68 0-15.36 3.072-20.992 8.704-5.632 5.632-8.704 13.312-8.704 20.992V719.36c0 16.384 13.312 29.696 29.696 29.696h631.296zM558.08 532.48v-61.952H414.208v-262.656h46.08v26.112H558.08v-112.128h47.616v112.128H701.44v-23.04h46.08V470.528h-142.336V532.48H558.08z m-97.792-254.976v54.272H558.08v-54.272H460.288z m145.408 0v54.272H701.44v-54.272h-95.744zM460.288 373.76V427.008H558.08V373.76H460.288z m145.408 0V427.008H701.44V373.76h-95.744z m0 0"  horiz-adv-x="1024" />

    
    <glyph glyph-name="beiananjiandengji" unicode="&#58947;" d="M60.416 609.792h157.184c6.144 0 10.752 4.608 10.752 10.752v153.6c0 9.728-11.264 14.336-18.432 7.68l-156.672-153.6c-6.656-7.168-2.048-18.432 7.168-18.432z m930.816-233.984c-6.144 41.984-39.936 75.776-81.92 81.92-34.304 4.608-66.048-8.192-86.528-30.72l137.728-137.728a97.28 97.28 0 0 1 30.72 86.528z m-120.32-36.352l-68.608 68.608-280.576-280.576-22.016-159.744 159.744 22.016 182.784 182.784 97.792 97.792-69.12 69.12z m-295.936-326.144l-33.28 33.28 7.168 47.616 37.888-37.888 37.888-37.888-25.088-2.56-24.576-2.56z m0 0M283.648 799.744v-222.72c0-15.872-12.8-29.184-29.184-29.184H60.416c-15.872 0-29.184-12.8-29.184-29.184v-486.4c0-15.872 12.8-29.184 29.184-29.184h361.984c14.848 0 27.136 10.752 29.184 25.6l15.36 111.104 1.024 9.728 175.616 175.616c5.12 5.12 8.192 12.8 8.192 20.992V770.048c0 15.872-12.8 29.184-29.184 29.184l-338.944 0.512z m34.816-527.36H186.88c-15.872 0-29.184 12.8-29.184 29.184 0 15.872 12.8 29.184 29.184 29.184h131.584c15.872 0 29.184-12.8 29.184-29.184 0-15.872-12.8-29.184-29.184-29.184z m190.464 125.952H187.904c-13.824 0-27.136 9.216-29.696 23.04-3.584 18.432 10.752 34.816 28.672 34.816h322.048c15.872 0 29.184-12.8 29.184-29.184 0-15.872-12.8-28.672-29.184-28.672z m29.184 0"  horiz-adv-x="1024" />

    
    <glyph glyph-name="shouye2" unicode="&#58948;" d="M950.784 128c0-19.968-16.384-36.352-36.352-36.352H109.568c-19.968 0-36.352 16.384-36.352 36.352v73.216h877.568V128zM109.568 822.784h804.352c19.968 0 36.352-16.384 36.352-36.352v-512H73.216v512c0 19.968 16.384 36.352 36.352 36.352zM914.432 896H109.568C49.152 896 0 846.848 0 786.432V128c0-60.416 49.152-109.568 109.568-109.568h365.568v-73.216h-256c-19.968 0-36.352-16.384-36.352-36.352 0-19.968 16.384-36.352 36.352-36.352h585.216c19.968 0 36.352 16.384 36.352 36.352 0 19.968-16.384 36.352-36.352 36.352h-256v73.216h365.568c60.416 0 109.568 49.152 109.568 109.568V786.432C1024 846.848 974.848 896 914.432 896z"  horiz-adv-x="1024" />

    
    <glyph glyph-name="tongzhi" unicode="&#58949;" d="M835.072 591.36c-11.776 11.776-29.184 11.776-40.96 0s-11.776-29.184 0-40.96c40.96-40.96 67.072-98.816 67.072-165.888 0-67.072-26.112-122.368-67.072-165.888-11.776-11.776-11.776-29.184 0-40.96s29.184-11.776 40.96 0c52.224 52.224 84.48 125.44 84.48 206.848s-31.744 154.624-84.48 206.848z m0 0M751.104 506.88c-11.776 11.776-29.184 11.776-40.96 0s-11.776-29.184 0-40.96c20.48-20.48 34.816-49.664 34.816-81.408 0-32.256-11.776-60.928-34.816-81.408-11.776-11.776-11.776-29.184 0-40.96s29.184-11.776 40.96 0c32.256 32.256 52.224 75.776 52.224 122.368 0 46.592-20.48 93.184-52.224 122.368z m0 0M552.96 719.872L337.408 588.8v-407.552l215.552-131.072c40.96-26.112 75.776-5.632 75.776 40.96V675.84c0 49.664-35.328 67.072-75.776 44.032z m0 0M104.448 501.248v-232.96c0-49.664 37.888-87.552 87.552-87.552h87.552V588.8H191.488c-49.664 0-87.04-37.888-87.04-87.552z m0 0"  horiz-adv-x="1024" />

    
    <glyph glyph-name="zibananjiandengji" unicode="&#58950;" d="M512 384c136.704 0 247.296 110.592 247.296 247.296 0 136.704-110.592 247.296-247.296 247.296C375.296 879.104 264.704 768 264.704 631.296c0-136.704 110.592-247.296 247.296-247.296z m0-123.904c-165.376 0-495.104-82.944-495.104-247.296v-123.904h989.696v123.904c0.512 164.352-329.216 247.296-494.592 247.296z m0 0"  horiz-adv-x="1024" />

    
    <glyph glyph-name="zhengqiuyijiandengji" unicode="&#58951;" d="M192 64.512l-46.08-79.36c-6.144-7.168-9.728-15.872-9.728-25.6 0-21.504 17.92-39.424 39.936-39.424 7.68 0 25.088 1.536 25.6 1.536h331.776v0.512c253.952 2.048 459.264 208.384 459.264 462.848 0 255.488-207.36 462.848-462.848 462.848h-4.096c-255.488 0-462.848-207.36-462.848-463.36 0-123.904 49.664-236.544 129.024-320z m264.704 157.696H340.992c-25.6 0-46.592 20.992-46.592 46.592s20.992 46.592 46.592 46.592h115.712c25.6 0 46.592-20.992 46.592-46.592s-20.992-46.592-46.592-46.592zM340.992 562.688H711.68c25.6 0 46.592-20.992 46.592-46.592s-20.992-46.592-46.592-46.592H340.992c-25.6 0-46.592 20.992-46.592 46.592 0.512 26.112 20.992 46.592 46.592 46.592z m-46.08 0"  horiz-adv-x="1024" />

    
    <glyph glyph-name="yisongqianshou1" unicode="&#58952;" d="M849.408 750.08h-4.608c-24.576 0-45.056-19.968-45.056-45.056V629.76c0-24.576-19.968-45.056-45.056-45.056H301.056C276.48 584.704 256 604.672 256 629.76V705.536c0 24.576-19.968 45.056-45.056 45.056h-4.096c-24.576 0-45.056-19.968-45.056-45.056v-760.832c0-24.576 19.968-45.056 45.056-45.056H849.92c24.576 0 45.056 19.968 45.056 45.056V705.536c-0.512 24.576-20.48 44.544-45.568 44.544z m-109.056-392.192l-218.112-286.72c-9.728-11.776-24.064-18.944-39.936-19.456H481.28c-15.36 0-29.696 6.144-39.424 17.408l-123.392 137.728c-9.216 10.24-13.824 23.552-12.288 36.864 1.024 13.824 7.68 26.112 18.944 34.816 20.992 16.896 54.784 13.824 72.704-5.632l81.92-91.648L658.432 419.84c16.896 20.992 50.176 25.088 72.192 9.216 11.264-8.192 18.432-19.968 20.48-33.792 2.048-13.312-2.048-26.624-10.752-37.376zM328.704 632.32h399.36c13.824 0 24.576 11.264 24.576 24.576V725.504c0 13.824-11.264 24.576-24.576 24.576h-70.656c-11.776 0-22.016 8.192-24.064 19.968-6.144 34.304-26.624 64.512-57.344 82.432-36.352 20.992-81.408 20.992-118.272 0-30.72-17.92-51.2-48.128-57.344-82.432-2.048-11.776-12.288-19.968-24.064-19.968h-47.104c-13.824 0-24.576-11.264-24.576-24.576v-68.608c-1.024-13.824 10.24-24.576 24.064-24.576zM471.04 764.416c3.584 12.288 12.288 23.04 24.064 28.16 24.064 11.264 50.176 2.048 61.952-18.944 8.192-14.848 8.192-32.768 0-47.104-8.192-14.848-24.064-23.552-40.96-23.552-30.208 0-54.272 29.184-45.056 61.44z"  horiz-adv-x="1024" />

    
    <glyph glyph-name="lingdaojiaobandengji" unicode="&#58953;" d="M700.928 222.208c15.872-6.144 33.28-11.776 51.712-16.896 18.944-4.608 36.352-10.752 53.76-17.408 16.896-6.656 32.256-14.848 46.08-25.088 13.312-9.728 23.552-23.552 28.16-39.424 3.072-9.728 5.632-21.504 7.68-36.352 2.048-14.848 3.072-29.696 3.072-45.056s-1.024-29.696-3.072-43.008c-2.048-13.312-5.632-23.04-10.752-29.696-3.072-4.608-11.776-9.216-26.624-14.336-14.336-5.12-32.768-10.24-54.272-14.848-21.504-4.608-45.568-9.216-71.68-13.312s-52.736-7.68-79.36-10.752c-26.624-3.072-52.224-5.632-76.8-7.168-21.504-1.536-43.008-2.048-64.512-2.56-18.432 0-39.424 1.024-62.976 3.072-24.064 2.048-48.64 4.096-72.704 7.168-24.576 3.072-49.152 6.144-73.728 10.24-22.016 3.584-44.544 7.168-66.56 11.264-16.896 3.072-34.304 7.168-50.688 11.264-13.824 3.584-23.04 7.168-26.624 10.752-6.144 5.12-11.264 20.48-14.848 46.592-3.584 26.112-2.56 59.392 3.072 100.352 3.584 23.04 13.312 40.448 28.672 52.224 15.36 11.776 33.28 21.504 53.76 28.672 20.992 7.68 41.984 13.824 63.488 19.456 22.016 5.632 40.96 13.824 57.344 25.088 12.8 8.192 22.528 15.872 29.696 23.552 7.168 7.168 11.776 14.848 14.848 22.528 3.072 7.68 4.096 15.36 4.096 24.064 0 8.192-0.512 17.408-1.024 26.624-1.024 14.848-6.144 26.112-14.848 34.304-8.704 8.192-17.408 16.896-27.136 25.6-5.12 4.608-9.728 10.752-13.824 17.92-4.096 7.68-7.68 15.36-10.752 24.064-3.584 9.728-6.656 19.456-9.728 29.696-4.608 1.536-9.216 3.584-13.312 6.656-4.608 4.096-8.704 8.704-11.776 13.312-4.096 5.632-7.68 13.824-10.752 25.088-3.072 10.752-4.096 20.48-3.072 29.696 1.024 8.704 2.56 16.384 5.12 23.04 2.56 7.168 6.144 13.824 11.264 19.968 0 24.064 1.024 48.128 3.584 71.68 2.56 20.48 7.168 41.984 13.312 64.512 6.144 22.016 15.872 43.008 29.696 61.44 11.776 17.408 25.088 31.232 39.936 42.496 13.824 10.752 28.672 19.456 44.544 26.112 14.848 6.144 30.208 10.752 46.08 12.8 14.848 2.048 29.184 3.072 44.032 3.584 18.432 0 35.84-2.048 52.736-6.144 16.896-4.096 32.256-9.728 46.592-16.896s27.136-14.848 38.4-24.064c11.264-8.704 20.48-17.92 27.648-26.624 15.36-19.968 27.648-42.496 35.84-66.56 7.68-24.064 13.312-46.592 16.384-68.096 3.584-25.6 5.632-50.688 4.608-75.264 3.584-3.072 7.168-7.168 9.728-12.288 2.56-4.608 4.608-10.24 6.144-17.408 1.536-7.168 1.536-15.36 0.512-25.6-1.024-13.312-4.096-24.064-8.704-32.256-4.608-8.192-8.704-14.336-13.312-18.432-5.12-4.608-10.752-8.192-16.896-10.752-3.072-9.728-6.144-19.968-9.728-29.696-3.072-8.192-7.168-15.872-10.752-23.552-4.096-8.192-8.704-13.824-13.824-17.92-5.632-5.12-10.752-9.216-15.872-12.8-4.608-3.584-8.704-7.168-12.8-11.264-3.584-4.096-7.168-8.704-9.728-13.824-3.072-6.144-4.608-12.288-5.632-18.944-2.048-9.728-2.56-19.456-2.56-29.184 0.512-9.728 3.072-19.968 7.68-29.696s11.776-19.456 22.016-28.16c9.216-8.704 23.04-16.896 39.936-23.552z m-124.416-202.752c0 3.584-1.024 11.264-3.072 22.016-2.048 10.752-4.096 22.528-6.144 34.816-3.584 20.48-8.192 40.448-12.8 60.928 7.168 5.632 14.336 15.36 22.016 28.672 1.024 3.584 0.512 8.192-3.072 13.312-3.072 5.12-7.168 15.872-12.288 20.48-6.656 5.632-13.312 11.264-19.968 16.384h-46.592c-7.168-5.632-12.8-11.264-17.92-16.384-4.608-4.608-8.192-15.36-11.264-20.48-3.072-5.12-3.584-9.216-2.048-12.288 6.144-12.288 11.776-21.504 16.896-27.648-1.024-3.584-3.072-10.752-5.632-21.504-2.56-10.752-5.632-22.016-8.704-34.304-3.072-11.776-5.632-24.064-8.192-35.84-2.048-11.264-3.072-19.968-3.072-25.6 0-3.072 2.56-7.68 8.192-13.824 5.632-6.144 11.776-11.776 18.944-17.92 7.168-5.632 14.336-10.752 21.504-15.36 7.168-4.608 11.776-6.656 15.36-6.656 3.072 0 8.192 2.048 14.848 6.144 6.656 4.096 13.312 9.216 19.456 14.848 6.144 5.632 11.776 11.264 16.384 17.408 4.608 5.12 7.168 9.728 7.168 12.8z m0 0"  horiz-adv-x="1024" />

    
    <glyph glyph-name="zhidingshenheren" unicode="&#58954;" d="M526.336-47.104c-127.488 0-281.088 0.512-408.576 0.512v240.128c0 68.096 77.312 124.416 146.432 139.776 47.104-37.376 104.96-48.128 166.912-48.128s119.808 10.752 166.912 48.128c28.16-6.144 53.76-19.456 73.728-37.376 17.408 16.896 35.328 33.792 53.248 50.176-19.968 19.456-44.544 34.816-71.68 44.032 40.96 55.296 65.536 125.952 65.536 203.264 0 176.64-129.024 284.672-287.744 284.672-158.72 0-287.744-108.032-287.744-284.672 0-77.312 24.576-147.968 65.536-203.264-75.264-26.112-155.136-96.768-155.136-180.736v-320h474.624c-0.512 21.504-1.536 42.496-2.048 63.488zM207.36 593.408C207.36 734.72 307.712 814.08 431.616 814.08c123.904 0 223.744-79.36 223.744-220.672s-100.352-244.224-223.744-244.224-224.256 102.912-224.256 244.224z m0 0M953.856 323.072l-62.464 62.464c-10.24 10.24-24.576 16.384-38.912 16.384-14.848 0-28.672-5.632-38.912-16.384l-160.768-160.768-112.64-112.64v-107.52c0-18.432 14.848-33.28 33.28-33.28h107.008l112.64 112.64 160.768 160.768c10.24 10.24 16.384 24.576 16.384 38.912 0 14.848-5.632 29.184-16.384 39.424z m-57.344-49.664l-248.32-247.296h-53.248v53.76l248.32 246.784c4.608 4.608 11.264 7.168 17.92 7.168s13.312-2.56 17.92-7.168l17.92-17.92c9.216-9.728 9.216-25.6-0.512-35.328z"  horiz-adv-x="1024" />

    
    <glyph glyph-name="shoulishenheyijian" unicode="&#58955;" d="M966.656 354.304l-60.928 60.928c-10.24 10.24-24.064 15.872-38.4 15.872s-28.16-5.632-38.4-15.872l-157.184-157.184-110.08-109.568v-104.96c0-17.92 14.848-32.768 32.768-32.768h104.96l110.08 110.08 157.184 157.184c10.24 10.24 15.872 24.064 15.872 38.4s-5.632 28.16-15.872 37.888z m-56.32-48.64l-243.2-241.664h-52.224v52.224l243.2 241.664c4.608 4.608 10.752 7.168 17.408 7.168s12.8-2.56 17.408-7.168l17.408-17.408c9.728-9.728 9.728-25.088 0-34.816zM457.216-31.744c18.944 0 34.816-15.36 34.816-34.816 0-18.944-15.36-34.816-34.816-34.816H148.48c-59.392 0-107.52 49.152-107.52 109.568V759.808C40.96 820.224 88.576 869.376 148.48 869.376h617.472c59.392 0 107.52-49.152 107.52-109.568v-197.632c0-18.944-15.36-34.816-34.816-34.816-18.944 0-34.816 15.36-34.816 34.816V759.808c0 22.528-17.408 39.936-37.888 39.936H148.48c-20.48 0-37.888-17.92-37.888-39.936v-752.128c0-22.528 17.408-39.936 37.888-39.936h308.736zM284.16 280.064c-18.944 0-34.816 15.36-34.816 34.816 0 18.944 15.36 34.816 34.816 34.816h119.808c18.944 0 34.816-15.36 34.816-34.816 0-18.944-15.36-34.816-34.816-34.816H284.16z m0 277.504c-18.944 0-34.816 15.36-34.816 34.816 0 18.944 15.36 34.816 34.816 34.816h346.624c18.944 0 34.816-15.36 34.816-34.816 0-18.944-15.36-34.816-34.816-34.816H284.16z"  horiz-adv-x="1024" />

    
    <glyph glyph-name="anjianshouliqingkuang" unicode="&#58956;" d="M267.776 23.552v16.384l84.992 55.296c9.728 6.656 12.8 16.384 12.8 26.112v97.792h-261.12V740.864h782.336v-270.336c23.04-12.8 45.568-29.184 65.024-48.64V740.864c0 35.84-29.184 65.024-65.024 65.024H104.448c-35.84 0-65.024-29.184-65.024-65.024v-521.728c0-35.84 29.184-65.024 65.024-65.024h195.584v-16.384L215.04 82.432c-6.656-6.656-12.8-16.384-12.8-26.112v-32.768c0-35.84 29.184-65.024 65.024-65.024h224.768c-19.456 19.456-35.84 42.496-48.64 65.024H267.776z m0 0M593.408 219.136c17.92 0 32.768-14.848 32.768-32.768 0-17.92-14.848-32.768-32.768-32.768-17.92 0-32.768 14.848-32.768 32.768 0.512 17.92 14.848 32.768 32.768 32.768z m130.56 0c17.92 0 32.768-14.848 32.768-32.768 0-17.92-14.848-32.768-32.768-32.768-17.92 0-32.768 14.848-32.768 32.768 0 17.92 14.848 32.768 32.768 32.768z m130.048 0c17.92 0 32.768-14.848 32.768-32.768 0-17.92-14.848-32.768-32.768-32.768-17.92 0-32.768 14.848-32.768 32.768 0.512 17.92 14.848 32.768 32.768 32.768z m-32.256 0M723.968 447.488c-143.36 0-260.608-117.248-260.608-260.608s117.248-260.608 260.608-260.608 260.608 117.248 260.608 260.608c0 142.848-117.248 260.608-260.608 260.608z m0-456.704c-107.52 0-195.584 88.064-195.584 195.584 0 107.52 88.064 195.584 195.584 195.584 107.52 0 195.584-88.064 195.584-195.584 0-107.52-88.064-195.584-195.584-195.584z m-456.192 619.52h456.192c17.92 0 32.768-14.848 32.768-32.768 0-17.92-14.848-32.768-32.768-32.768H267.776c-17.92 0-32.768 14.848-32.768 32.768 0 17.92 14.336 32.768 32.768 32.768z m-32.768 0"  horiz-adv-x="1024" />

    
    <glyph glyph-name="shangshengjiantou" unicode="&#58957;" d="M899.584 493.568L526.848 866.304c-8.192 8.192-21.504 8.192-29.184 0L124.416 493.568c-13.312-13.312-4.096-35.328 14.848-35.328h175.616v-542.72c0-10.752 8.704-19.456 19.456-19.456h354.304c10.752 0 19.456 8.704 19.456 19.456v542.72h175.616c19.968 0 29.184 22.528 15.872 35.328z"  horiz-adv-x="1024" />

    
    <glyph glyph-name="anjiantongjifenxi" unicode="&#58958;" d="M781.824 111.616c17.408 0 31.232 14.336 31.744 31.232V286.72c0 17.408-13.824 31.232-31.744 31.232-17.408 0-31.232-14.336-31.744-31.232v-143.872c0.512-17.408 14.336-31.232 31.744-31.232zM710.144 8.704H313.856c-17.408 0-31.744-14.336-31.744-31.744 0-17.408 14.336-31.744 31.744-31.744h395.776c17.408 0 31.744 14.336 31.744 31.744 0 17.408-13.824 31.744-31.232 31.744zM602.112 111.616c17.408 0 31.744 14.336 31.744 31.744V394.752c0 17.408-14.336 31.744-31.744 31.744-17.408 0-31.744-14.336-31.744-31.744v-251.904c0-17.408 14.336-31.232 31.744-31.232zM907.776 822.272H116.224c-27.136 0-49.664-22.016-49.664-49.664v-684.032c0-25.6 19.456-46.592 44.032-49.152v-0.512h797.184c27.136 0 49.664 22.016 49.664 49.664V772.608c0 27.648-22.528 49.664-49.664 49.664zM696.32 646.656c0-12.288-10.24-22.528-22.528-22.528-12.288 0-22.528 10.24-22.528 22.528 0 12.288 10.24 22.528 22.528 22.528 12.288 0 22.528-9.728 22.528-22.528zM426.496 449.024c0-12.288-10.24-22.528-22.528-22.528-12.288 0-22.528 10.24-22.528 22.528 0 12.288 10.24 22.528 22.528 22.528 12.288 0 22.528-10.24 22.528-22.528z m462.336 3.584l-136.704 160.256c4.608 10.752 7.168 22.528 7.168 34.304 0 47.104-38.4 85.504-85.504 85.504s-85.504-38.4-85.504-85.504c0-8.192 1.024-16.896 3.584-24.576L454.144 518.144c-14.336 10.24-32.256 16.384-50.176 16.384-10.752 0-20.992-2.048-31.232-5.632-58.368 68.096-164.864 192-165.888 193.536-6.144 7.68-15.36 11.776-25.088 11.776-5.12 0-10.24-1.536-14.848-3.584l-0.512 0.512-4.608-4.096-2.56-2.048c-11.264-11.776-11.264-30.72-0.512-43.52l167.424-195.584c-5.12-11.264-8.192-23.552-8.192-36.352 0-47.104 38.4-85.504 85.504-85.504s85.504 38.4 85.504 85.504c0 5.12-0.512 10.752-1.536 15.872l143.36 108.032c12.8-7.68 27.648-11.264 42.496-11.264 11.264 0 23.04 2.56 33.792 6.656l133.632-156.672c6.144-7.168 14.848-11.264 24.576-11.264 5.12 0 10.24 1.536 14.848 3.584l0.512-0.512 4.608 4.096 5.12 4.608-0.512 0.512c1.536 2.048 3.072 4.608 4.096 6.656v-317.44H129.536V759.296h764.416v-315.392c-1.024 3.072-2.56 6.144-5.12 8.704zM242.176 111.616c17.408 0 31.744 13.824 31.744 31.232V215.04c0 17.408-13.824 31.232-31.744 31.232-16.896 0-31.744-14.336-31.744-31.232v-72.192c0-17.408 13.824-31.232 31.744-31.232zM421.888 111.616c16.896 0 31.744 14.336 31.744 31.232V286.72c0 17.408-13.824 31.232-31.744 31.232-16.896 0-31.744-14.336-31.744-31.232v-143.872c0.512-17.408 14.336-31.232 31.744-31.232z"  horiz-adv-x="1024" />

    
    <glyph glyph-name="xiajiangjiantou" unicode="&#58959;" d="M124.416 274.432l372.736-372.736c8.192-8.192 21.504-8.192 29.184 0l373.248 372.736c13.312 13.312 4.096 35.328-14.848 35.328h-175.616V852.48c0 10.752-8.704 19.456-19.456 19.456H334.848c-10.752 0-19.456-8.704-19.456-19.456v-542.72H139.264c-18.944 0-28.16-22.528-14.848-35.328z"  horiz-adv-x="1024" />

    
    <glyph glyph-name="shensuanjianshoulizongliang" unicode="&#58960;" d="M785.92 479.744h-165.376c-12.288 0-23.552-6.656-29.696-17.408-6.144-10.752-6.144-23.552 0-34.304 6.144-10.752 17.408-17.408 29.696-17.408h165.376c12.288 0 23.552 6.656 29.696 17.408 6.144 10.752 6.144 23.552 0 34.304-5.632 10.752-17.408 17.408-29.696 17.408z m34.304 109.056c0 18.432-15.36 33.792-33.792 33.792h-248.32c-18.432 0-33.792-15.36-33.792-33.792v-1.024c0-18.432 15.36-33.792 33.792-33.792h248.832c18.432 0 33.792 15.36 33.792 33.792l-0.512 1.024z m45.056 246.784H332.288c-50.688 0.512-92.16-39.424-94.208-90.112v-29.696c0-12.288 6.656-23.552 16.896-29.696 10.752-6.144 23.552-6.144 34.304 0 10.752 6.144 16.896 17.408 16.896 29.696v27.648c1.024 13.312 12.288 23.552 25.6 23.04H865.28c13.312 0.512 25.088-9.728 25.6-23.04v-719.36c-1.024-13.312-12.288-23.552-25.6-23.552H332.288c-13.312-0.512-25.088 9.728-25.6 23.552v29.696c0.512 12.8-5.632 24.576-16.384 31.232-10.752 6.656-24.576 6.656-35.328 0-10.752-6.656-17.408-18.432-16.384-31.232v-29.696c0.512-51.2 43.008-92.672 94.208-92.16h532.992c51.2-0.512 93.696 40.448 94.208 92.16V743.424c-1.024 51.712-43.008 92.672-94.72 92.16zM306.688 594.432l306.688-304.64-56.32-56.832-57.344-57.856-306.688 304.128 113.664 115.2z m144.896-468.48c-12.8-13.312-12.288-34.304 0.512-47.104 13.824-13.312 34.816-13.312 48.128-0.512l209.92 211.968c12.8 13.312 12.8 34.816 0 47.616-12.8 13.312-34.304 13.824-48.128 0.512l-307.2 304.64c12.8 13.312 12.288 34.304-0.512 47.104-12.8 13.312-34.304 13.824-48.128 0.512L200.704 584.704 95.744 479.232c-12.8-13.312-12.288-34.304 0.512-47.616 13.824-13.312 34.816-13.312 48.128-0.512l129.536-128.512-225.28-229.376c-9.728-8.704-13.824-21.504-10.752-33.792 3.072-12.288 12.8-22.016 25.088-25.088 12.288-3.072 25.6 1.024 33.792 10.752l225.28 228.864 129.536-128z m0 0"  horiz-adv-x="1024" />

    
    <glyph glyph-name="zibananjianshoulizongliang" unicode="&#58961;" d="M785.92 784.896h-45.056C729.6 831.488 688.128 865.28 640 865.28H384c-49.664 0-89.6-33.792-100.864-80.384h-45.056c-60.928 0-110.592-49.664-110.592-112.128V15.36c0-62.464 49.664-112.128 110.592-112.128h548.352c60.928 0 110.592 49.664 110.592 112.128V672.768c-0.512 62.464-50.176 112.128-111.104 112.128z m-442.368-24.064c0 22.528 17.408 39.936 39.936 39.936H640c22.528 0 39.936-17.408 39.936-39.936v-15.872c0-22.528-17.408-39.936-39.936-39.936H384c-22.528 0-39.936 17.408-39.936 39.936v15.872zM832.512 15.36c0-27.136-20.992-48.128-46.592-48.128h-547.84c-25.6 0-46.592 20.992-46.592 48.128V672.768c0 27.136 20.992 48.128 46.592 48.128h45.056c11.264-46.592 52.736-80.384 100.864-80.384h256c49.664 0 89.6 33.792 100.864 80.384h45.056c25.6 0 46.592-20.992 46.592-48.128V15.36z m0 0M670.72 368.128H347.136c-17.408 0-30.208 14.336-30.208 32.256 0 17.408 14.336 32.256 30.208 32.256H670.72c17.408 0 30.208-14.336 30.208-32.256s-12.8-32.256-30.208-32.256z m0-160.256H347.136c-17.408 0-30.208 14.336-30.208 32.256 0 17.408 14.336 32.256 30.208 32.256H670.72c17.408 0 30.208-14.336 30.208-32.256s-12.8-32.256-30.208-32.256z m0 0"  horiz-adv-x="1024" />

    
    <glyph glyph-name="shenlibaogao" unicode="&#58963;" d="M753.152 12.8c-6.656 14.848-9.728 30.72-9.728 47.104V708.096c0 26.112-20.992 47.104-47.104 47.104s-47.104-20.992-47.104-47.104v-119.808c0-19.968-17.408-36.352-38.912-36.352H173.056v-457.216c0-45.568 36.864-81.92 81.92-81.92h498.176z m107.52-70.144H254.976c-83.968 0-152.576 68.096-152.576 152.576V551.936h-38.912c-21.504 0-38.912 16.384-38.912 36.352v128c0 60.416 52.736 109.568 117.248 109.568h555.008c64.512 0 117.248-52.736 117.248-117.248V235.52h124.928c21.504 0 38.912-17.408 38.912-38.912v-136.704c0-65.024-52.224-117.248-117.248-117.248zM579.584 622.592V708.096c0 16.896 3.584 32.768 9.728 47.104H141.824c-27.136 0-47.104-18.432-47.104-38.912v-93.696h484.864zM286.208 401.408h344.064c19.456 0 35.328-15.872 35.328-35.328 0-19.456-15.872-35.328-35.328-35.328H286.208c-19.456 0-35.328 15.872-35.328 35.328 0.512 19.968 15.872 35.328 35.328 35.328z m0-167.936h344.064c19.456 0 35.328-15.872 35.328-35.328 0-19.456-15.872-35.328-35.328-35.328H286.208c-19.456 0-35.328 15.872-35.328 35.328 0.512 19.456 15.872 35.328 35.328 35.328zM814.08 165.376v-105.472c0-26.112 20.992-47.104 47.104-47.104s47.104 20.992 47.104 47.104v105.472H814.08z m0 0"  horiz-adv-x="1024" />

    
    <glyph glyph-name="tanhuabilu" unicode="&#58964;" d="M836.096-100.864H187.904c-40.96 0-74.752 33.28-74.752 74.752V719.872c0 19.968 7.68 38.912 22.016 52.736 13.824 13.824 32.768 22.016 52.736 22.016h137.728v37.376c0 20.48 16.896 37.376 37.376 37.376h298.496c20.48 0 37.376-16.896 37.376-37.376v-37.376h137.728c41.472 0 74.752-33.28 74.752-74.752v-746.496c-0.512-40.96-33.792-74.24-75.264-74.24zM624.128 794.624H399.872v-74.752h223.744V794.624z m193.536-74.752h-100.352c-10.24 0-18.432-8.192-18.432-18.432v-18.432c0-9.728-4.096-19.456-10.752-26.624-7.168-7.168-16.384-10.752-26.624-10.752H381.44c-30.72 0-55.808 25.088-55.808 55.808 0 10.24-8.192 18.432-18.432 18.432H206.336c-10.24 0-18.432-8.192-18.432-18.432v-709.12c0-10.24 8.192-18.432 18.432-18.432h611.328c10.24 0 18.432 8.192 18.432 18.432V700.928c0 10.752-8.192 18.944-18.432 18.944z m-119.296-671.744H325.632c-20.48 0-37.376 16.896-37.376 37.376s16.896 37.376 37.376 37.376h373.248c20.48 0 37.376-16.896 37.376-37.376-0.512-20.48-16.896-37.376-37.888-37.376z m-148.992 223.744h149.504c20.48 0 37.376-16.896 37.376-37.376s-16.896-37.376-37.376-37.376h-149.504c-20.48 0-37.376 16.896-37.376 37.376 0 20.992 16.896 37.376 37.376 37.376z m-261.12-74.24v74.752l298.496 298.496 74.752-74.752-298.496-298.496H288.256z m0 0"  horiz-adv-x="1024" />

    
    <glyph glyph-name="zhengqiuyijian" unicode="&#58965;" d="M913.408 771.584H110.592c-29.696 0-53.248-24.064-53.248-53.248v-668.672c0-29.696 24.064-53.248 53.248-53.248h802.304c29.696 0 53.248 24.064 53.248 53.248V718.336c0.512 29.696-23.552 53.248-52.736 53.248z m-27.136-695.296H137.728V565.248l342.528-233.984 45.056-30.72 45.056 30.72 315.904 215.552v-470.528z m0 567.808l-360.96-246.272-387.584 264.192v29.696h749.056v-47.616z m0 0"  horiz-adv-x="1024" />

    
    <glyph glyph-name="leixing" unicode="&#58966;" d="M944.64 152.064c0-111.104-90.112-201.216-201.216-201.216-111.104 0-201.216 90.112-201.216 201.216V353.28h201.216c111.616 0 201.216-90.112 201.216-201.216z m-329.216 0c0-70.656 57.344-128 128-128s128 57.344 128 128-57.344 128-128 128h-128v-128zM79.36 615.936c0 111.104 90.112 201.216 201.216 201.216C391.168 816.64 481.28 727.04 481.28 615.936V414.72H280.064C168.96 414.72 79.36 504.832 79.36 615.936z m329.216 0c0 70.656-57.344 128-128 128s-128-57.344-128-128 57.344-128 128-128h128v128zM743.936 414.72H542.72V615.936c0 111.104 90.112 201.216 201.216 201.216 111.104 0 201.216-90.112 201.216-201.216C944.64 504.832 855.04 414.72 743.936 414.72z m0 329.216c-70.656 0-128-57.344-128-128v-128h128c70.656 0 128 57.344 128 128s-57.344 128-128 128zM280.064 353.28H481.28v-201.216c0-111.104-90.112-201.216-201.216-201.216-111.104 0-201.216 90.112-201.216 201.216 0.512 111.104 90.112 201.216 201.216 201.216z m0-329.216c70.656 0 128 57.344 128 128v128h-128c-70.656 0-128-57.344-128-128s57.344-128 128-128z m0 0"  horiz-adv-x="1024" />

    
    <glyph glyph-name="bendishangchuan" unicode="&#58967;" d="M953.856 434.688h-26.112c-22.528 0-40.96-18.432-40.96-40.96V30.72c0-22.528-18.432-40.96-40.96-40.96H165.888c-22.528 0-40.96 18.432-40.96 40.96V393.728c0 22.528-18.432 40.96-40.96 40.96h-21.504c-22.528 0-40.96-18.432-40.96-40.96L20.48-70.656c0-22.528 18.432-40.96 40.96-40.96h890.88c22.528 0 40.96 18.432 40.96 40.96l1.024 464.384c0.512 22.528-17.92 40.96-40.448 40.96z m60.416 0M498.688 871.424L271.36 644.096c-7.168-7.168-2.048-18.944 7.68-18.944h152.576c6.144 0 11.264-5.12 11.264-11.264v-422.4c0-6.144 5.12-11.264 11.264-11.264h104.96c6.144 0 11.264 5.12 11.264 11.264V613.888c0 6.144 5.12 11.264 11.264 11.264h152.576c9.728 0 14.848 11.776 7.68 18.944L514.048 871.424c-4.096 4.096-11.264 4.096-15.36 0z m7.68 7.68"  horiz-adv-x="1024" />

    
    <glyph glyph-name="bianji" unicode="&#58968;" d="M308.736 190.976L256 202.752l363.52 363.008 60.416-60.416-363.008-363.008-8.192 48.64z m410.624 275.456l-361.472-360.96-146.432-43.008-30.208 30.208 45.056 152.576L583.68 602.112l-43.008 43.52-363.008-359.424c-5.12-4.096-9.216-9.216-11.264-15.872l-76.288-259.072c-3.584-11.264 0-23.552 8.192-31.744 6.144-6.144 14.336-9.216 22.528-9.216 3.072 0 6.144 0.512 9.216 1.024L389.12 47.104c6.144 2.048 10.752 5.632 14.848 10.24l363.52 360.448-48.128 48.64z m-146.432 215.04l227.84-227.84 52.224 48.64-227.84 227.84-52.224-48.64z m339.456 3.584l-109.056 109.056c-30.208 30.208-78.848 30.208-108.544 0.512l-33.28-33.792L879.616 542.72l33.28 33.792c30.208 29.696 29.696 78.336-0.512 108.544z m0 0M676.864-48.64H135.68c-27.136 0-47.104 19.968-47.104 44.032 0 24.064 22.528 44.032 47.104 44.032h541.184c27.136 0 47.104-19.968 47.104-44.032 0.512-24.576-19.456-44.032-47.104-44.032z"  horiz-adv-x="1024" />

    
    <glyph glyph-name="chakan" unicode="&#58969;" d="M531.456 200.704c-67.072-23.04-139.264-18.944-202.752 12.288-64 31.232-111.616 84.992-134.656 152.064-9.728 28.16-14.848 57.344-14.848 87.04 0 113.152 71.68 214.016 178.688 250.88 67.072 23.04 139.264 18.944 202.752-12.288 64-31.232 111.616-84.992 135.168-152.064 9.728-28.16 14.848-57.344 14.848-87.04-0.512-113.152-72.192-214.016-179.2-250.88z m399.872-164.864l-196.096 196.096c47.104 62.464 73.728 139.776 73.728 219.648 0 39.424-6.656 79.872-19.968 119.296-65.536 189.952-273.408 290.816-463.36 225.28-151.04-52.224-245.76-193.536-245.76-344.576 0-39.424 6.656-79.872 19.968-119.296 66.048-190.464 273.408-290.816 463.36-225.28 36.864 12.8 70.656 31.232 100.352 53.76l196.096-196.096c15.872-15.872 40.96-16.896 55.296-2.048l17.92 17.92c15.36 14.336 14.336 38.912-1.536 55.296z m0 0"  horiz-adv-x="1024" />

    
    <glyph glyph-name="saomiaoshangchuan" unicode="&#58970;" d="M711.168 579.072V849.92c0 13.824-10.752 24.576-24.576 24.576H335.36c-13.824 0-24.576-10.752-24.576-24.576v-270.848c0-13.824-10.752-24.576-24.576-24.576H55.296c-13.824 0-24.576-11.264-24.576-24.576l0.512-431.104c0-13.312 11.264-24.576 24.576-24.576h230.4c13.824 0 24.576-10.752 24.576-24.576V-61.44c0-13.824 10.752-24.576 24.576-24.576h351.232c13.824 0 24.576 10.752 24.576 24.576v111.104c0 13.824 10.752 24.576 24.576 24.576h231.424c13.824 0 24.576 10.752 24.576 24.576V529.92c0 13.824-10.752 24.576-24.576 24.576h-231.424c-13.312 0-24.576 10.752-24.576 24.576zM415.232 794.624h190.976c13.824 0 24.576-10.752 24.576-24.576v-164.352c0-13.824-10.752-24.576-24.576-24.576H415.232c-13.824 0-24.576 10.752-24.576 24.576V770.048c0 13.312 10.752 24.576 24.576 24.576z m215.552-600.576v-175.104c0-13.824-10.752-24.576-24.576-24.576H415.232c-13.824 0-24.576 10.752-24.576 24.576V209.92c0 13.824 10.752 24.576 24.576 24.576h190.976c13.824 0 24.576-10.752 24.576-24.576v-15.872z m256.512-39.936h-151.552c-13.824 0-24.576 10.752-24.576 24.576v111.104c0 13.824-10.752 24.576-24.576 24.576H335.36c-13.824 0-24.576-10.752-24.576-24.576v-111.104c0-13.824-10.752-24.576-24.576-24.576H135.68c-13.824 0-24.576 10.752-24.576 24.576V449.536c0 13.824 10.752 24.576 24.576 24.576h751.616c13.824 0 24.576-10.752 24.576-24.576v-270.848c0-13.824-10.752-24.576-24.576-24.576z m24.576 0M150.528 394.24c0-22.016 17.92-39.936 39.936-39.936S230.4 371.712 230.4 394.24c0 22.016-17.92 39.936-39.936 39.936s-39.936-17.92-39.936-39.936z m0 0"  horiz-adv-x="1024" />

    
    </font>
</defs>
</svg>
