<svg xmlns="http://www.w3.org/2000/svg" viewBox="0 0 40 40"><defs><style>.cls-1{fill:#fff;}</style></defs><title>档案管理</title><g id="档案管理入口"><path class="cls-1" d="M5.59,27.73A2.56,2.56,0,1,0,5,23.34a2.55,2.55,0,0,0,.58,4.39Zm0,0"/><path class="cls-1" d="M32,31.5h-.32A18.31,18.31,0,0,0,21.49,35V23.23A23.12,23.12,0,0,1,32,19.09v3.28A3.29,3.29,0,0,1,33.43,22V17.46a27.89,27.89,0,0,0-7.15,1.59l-2-2a8,8,0,1,0-8.73,0l-1.93,2a28.09,28.09,0,0,0-7.09-1.56V22A3.33,3.33,0,0,1,8,22.37V19.09a23.12,23.12,0,0,1,10.49,4.14V35A18.27,18.27,0,0,0,8.34,31.5H8V28.37a3.32,3.32,0,0,1-1.45.34v4.4A8,8,0,0,1,8.34,33c2.3,0,6.64.69,11.62,4.92V22.54a18.43,18.43,0,0,0-4.85-2.93l1.16-1.18h7.37l1.19,1.21a18.14,18.14,0,0,0-4.78,2.9V37.87C25,33.64,29.36,33,31.66,33a8,8,0,0,1,1.77.16v-4.4A3.32,3.32,0,0,1,32,28.37ZM13.42,10.39A6.54,6.54,0,1,1,20,16.92a6.54,6.54,0,0,1-6.53-6.53Zm0,0"/><path class="cls-1" d="M30.87,25.37a2.56,2.56,0,1,0,1.28-2.22,2.55,2.55,0,0,0-1.28,2.22Zm0,0"/></g></svg>