<svg xmlns="http://www.w3.org/2000/svg" viewBox="0 0 40 40"><defs><style>.cls-1{fill:#fff;}</style></defs><title>档案管理</title><g id="档案管理入口"><path class="cls-1" d="M26.69,16.44a.91.91,0,0,1,.91.9.89.89,0,0,1-.9.89H11.34a.9.9,0,1,1,0-1.79Zm0-5.93a.92.92,0,0,1,.91.9.89.89,0,0,1-.9.89H11.34a.9.9,0,1,1,0-1.79Zm-3,11.86a.9.9,0,1,1,0,1.79H14.29a.9.9,0,0,1,0-1.79Zm9.5,0h0V8.76a2.87,2.87,0,0,0-2.87-2.85H7.64A2.86,2.86,0,0,0,4.79,8.76V22.37H7.86l6.76,5.92h8.77l6.7-5.92Zm0,9.13V24.15H30.77l-6.71,5.93H14L7.18,24.13H4.77V31.5a2.86,2.86,0,0,0,2.85,2.87H30.36a2.88,2.88,0,0,0,2.87-2.87ZM30.36,4.14A4.63,4.63,0,0,1,35,8.76V31.5a4.64,4.64,0,0,1-4.64,4.64H7.62A4.64,4.64,0,0,1,3,31.5V8.76A4.63,4.63,0,0,1,7.62,4.14Zm0,0"/></g></svg>