<svg xmlns="http://www.w3.org/2000/svg" viewBox="0 0 40 40"><defs><style>.cls-1{fill:#fff;}</style></defs><title>档案管理</title><g id="档案管理入口"><path class="cls-1" d="M28.44,17.44a12.67,12.67,0,0,1-2,7.64c-.14.22-.3.43-.46.64s-.12.23,0,.35.5.49.74.74a.29.29,0,0,0,.34.07,2.37,2.37,0,0,1,2.69.68c1.8,1.81,3.61,3.61,5.42,5.42a2.26,2.26,0,0,1,.49,2.87,5.77,5.77,0,0,1-2,2,2.18,2.18,0,0,1-2.75-.4q-2.85-2.82-5.67-5.67a2.24,2.24,0,0,1-.55-2.5.33.33,0,0,0-.1-.41c-.23-.22-.45-.44-.67-.67a.24.24,0,0,0-.39,0A12.14,12.14,0,0,1,19,30.26a11.41,11.41,0,0,1-4.9.14A12.06,12.06,0,0,1,5,23.06,10.84,10.84,0,0,1,4,18.4,12.1,12.1,0,0,1,8.89,8.6,11.43,11.43,0,0,1,15.1,6.19,12,12,0,0,1,26,11a11.59,11.59,0,0,1,2.45,6.42Zm-12.18-9a9.9,9.9,0,1,0,9.87,10,9.87,9.87,0,0,0-9.87-10Zm0,0"/><path class="cls-1" d="M10,15.21a8.84,8.84,0,0,0,9.67,9.12A6.77,6.77,0,0,1,10,15.21Zm0,0"/></g></svg>