<svg xmlns="http://www.w3.org/2000/svg" viewBox="0 0 40 40"><defs><style>.cls-1{fill:#fff;}</style></defs><title>档案管理</title><g id="档案管理入口"><path class="cls-1" d="M34.93,10a3.59,3.59,0,0,0-2.62-1H26.48v.06L21.13,4.14H7.69a3.9,3.9,0,0,0-2.62,1A3.5,3.5,0,0,0,4,7.65v25a3.48,3.48,0,0,0,1.07,2.5,3.59,3.59,0,0,0,2.62,1H32.31a3.86,3.86,0,0,0,2.62-1A3.48,3.48,0,0,0,36,32.63V12.53A3.29,3.29,0,0,0,34.93,10Zm-1,6.66V31.56a2.6,2.6,0,0,1-.77,1.85,2.9,2.9,0,0,1-1.91.77H8a2,2,0,0,1-1.37-.53A2,2,0,0,1,6,32.28V7.89a1.91,1.91,0,0,1,.59-1.37A2,2,0,0,1,8,6H20.36l5.29,4.88H31.3a2.63,2.63,0,0,1,1.91.77A2.6,2.6,0,0,1,34,13.48Zm0,0"/><path class="cls-1" d="M11,14h6.24a.82.82,0,0,0,.9-.89v-.24a.83.83,0,0,0-.9-.89H11a1.26,1.26,0,0,0-.66.24.89.89,0,0,0-.24.65v.24A.82.82,0,0,0,11,14Zm0,6.61H23.33a.9.9,0,0,0,.66-.24.93.93,0,0,0,.23-.65v-.24a.94.94,0,0,0-.23-.66.89.89,0,0,0-.66-.23H11a1.25,1.25,0,0,0-.66.23.9.9,0,0,0-.24.66v.24a.89.89,0,0,0,.24.65,1.26,1.26,0,0,0,.66.24Zm17.9,4.58H11a1.26,1.26,0,0,0-.66.24.88.88,0,0,0-.24.65v.24a.86.86,0,0,0,.24.65.9.9,0,0,0,.66.24h17.9a.9.9,0,0,0,.66-.24.86.86,0,0,0,.24-.65V26a.88.88,0,0,0-.24-.65,1.48,1.48,0,0,0-.66-.24Zm0,0"/></g></svg>